<svg width="14" height="18" viewBox="0 0 14 18" fill="none" xmlns="http://www.w3.org/2000/svg">
<path d="M0.999739 15.8457H13.0003C13.2536 15.8458 13.4975 15.9495 13.6827 16.1358C13.8678 16.3221 13.9804 16.5772 13.9977 16.8494C14.0149 17.1217 13.9356 17.3909 13.7757 17.6026C13.6158 17.8143 13.3873 17.9527 13.1363 17.9899L13.0003 18H0.999739C0.746363 17.9999 0.502462 17.8962 0.31732 17.7099C0.132177 17.5236 0.0195974 17.2686 0.00232728 16.9963C-0.0149428 16.724 0.0643848 16.4548 0.224281 16.2431C0.384178 16.0314 0.612722 15.893 0.863733 15.8558L0.999739 15.8457ZM6.86399 0.0100533L7 0C7.24166 1.09767e-05 7.47514 0.0942754 7.65727 0.265361C7.8394 0.436446 7.95784 0.672778 7.99071 0.930651L8.00004 1.07714V10.73L11.0068 7.49283C11.1764 7.31025 11.4012 7.19936 11.6404 7.18038C11.8795 7.1614 12.117 7.23559 12.3096 7.38943L12.4216 7.49283C12.5911 7.67547 12.694 7.91764 12.7117 8.17519C12.7293 8.43275 12.6604 8.68855 12.5176 8.89599L12.4216 9.01663L7.7067 14.0936C7.53737 14.276 7.31289 14.3869 7.07407 14.4061C6.83525 14.4254 6.59794 14.3517 6.40531 14.1984L6.2933 14.0936L1.57843 9.01663C1.3995 8.82443 1.29476 8.5664 1.28526 8.29441C1.27576 8.02241 1.36222 7.75664 1.52724 7.55051C1.69227 7.34438 1.92363 7.21318 2.1748 7.1833C2.42597 7.15341 2.67834 7.22706 2.88115 7.38943L2.99316 7.49283L5.99996 10.7329V1.07714C5.99997 0.816851 6.08748 0.565368 6.24632 0.369201C6.40516 0.173033 6.62458 0.0454529 6.86399 0.0100533Z" fill="white" fill-opacity="0.8"/>
</svg>
