<svg width="20" height="20" viewBox="0 0 20 20" fill="none" xmlns="http://www.w3.org/2000/svg">
<path d="M9.99 0C4.47 0 0 4.48 0 10C0 15.52 4.47 20 9.99 20C15.52 20 20 15.52 20 10C20 4.48 15.52 0 9.99 0ZM6.5 6C7.33 6 8 6.67 8 7.5C8 8.33 7.33 9 6.5 9C5.67 9 5 8.33 5 7.5C5 6.67 5.67 6 6.5 6ZM14.71 12.72C13.8 14.67 12.04 16 10 16C7.96 16 6.2 14.67 5.29 12.72C5.13 12.39 5.37 12 5.74 12H14.26C14.63 12 14.87 12.39 14.71 12.72ZM13.5 9C12.67 9 12 8.33 12 7.5C12 6.67 12.67 6 13.5 6C14.33 6 15 6.67 15 7.5C15 8.33 14.33 9 13.5 9Z" fill="white"/>
</svg>
