<svg width="21" height="6" viewBox="0 0 21 6" fill="none" xmlns="http://www.w3.org/2000/svg">
<path d="M0.858398 2.89899C0.858398 1.44854 2.03422 0.27272 3.48467 0.27272C4.93512 0.27272 6.11095 1.44854 6.11095 2.89899V3.10099C6.11095 4.55144 4.93512 5.72727 3.48467 5.72727C2.03422 5.72727 0.858398 4.55144 0.858398 3.10099V2.89899Z" fill="#7C818F"/>
<path d="M7.86182 2.89899C7.86182 1.44854 9.03764 0.27272 10.4881 0.27272C11.9385 0.27272 13.1144 1.44854 13.1144 2.89899V3.10099C13.1144 4.55144 11.9385 5.72727 10.4881 5.72727C9.03764 5.72727 7.86182 4.55144 7.86182 3.10099V2.89899Z" fill="#7C818F"/>
<path d="M14.8652 2.89899C14.8652 1.44854 16.0411 0.27272 17.4915 0.27272C18.942 0.27272 20.1178 1.44854 20.1178 2.89899V3.10099C20.1178 4.55144 18.942 5.72727 17.4915 5.72727C16.0411 5.72727 14.8652 4.55144 14.8652 3.10099V2.89899Z" fill="#7C818F"/>
</svg>
