<svg width="26" height="22" fill="none" xmlns="http://www.w3.org/2000/svg"><path d="M12.88 14.37c.886 0 1.736-.337 2.362-.937a3.129 3.129 0 00.965-2.538l-3.617 3.462c.096.008.193.013.29.013zM23.936 1.285L22.66.067a.244.244 0 00-.337 0l-3.26 3.12c-1.798-.879-3.82-1.319-6.064-1.319-5.731 0-10.007 2.857-12.828 8.571a1.66 1.66 0 000 1.47c1.127 2.273 2.485 4.094 4.072 5.465l-3.155 3.018a.224.224 0 00-.07.161c0 .06.026.119.07.162l1.273 1.218a.244.244 0 00.338 0L23.935 1.608a.228.228 0 00.07-.161.22.22 0 00-.07-.162zM7.633 11.173c0-.868.234-1.72.68-2.476a5.133 5.133 0 011.868-1.832 5.423 5.423 0 012.569-.714 5.44 5.44 0 012.602.59l-1.45 1.388c-.584-.18-1.21-.201-1.806-.063a3.384 3.384 0 00-1.576.847c-.434.416-.74.938-.885 1.509A3.068 3.068 0 009.7 12.15l-1.45 1.388a4.828 4.828 0 01-.617-2.366z" fill="#1E1E1E"/><path d="M25.828 10.437c-1.05-2.116-2.3-3.842-3.748-5.176l-4.298 4.114c.362.906.442 1.894.231 2.843a4.966 4.966 0 01-1.422 2.506 5.323 5.323 0 01-2.618 1.362 5.471 5.471 0 01-2.97-.222l-3.646 3.49c1.69.749 3.572 1.124 5.643 1.124 5.731 0 10.007-2.857 12.828-8.572a1.66 1.66 0 000-1.47z" fill="#1E1E1E"/></svg>