<?xml version="1.0" encoding="UTF-8"?>
<svg viewBox="0 0 20 20" xmlns="http://www.w3.org/2000/svg" xmlns:xlink="http://www.w3.org/1999/xlink">
<defs>
<path id="d" d="m0 0.64h17.599v15.36h-17.599z"/>
<path id="b" d="m0.125 0.883h12.713v10.044h-12.713z"/>
</defs>
<g fill="none" fill-rule="evenodd">
<g transform="translate(0 1.86)">
<mask id="c" fill="#fff">
<use xlink:href="#d"/>
</mask>
<path d="M9.919 13.258c-2.915 0-5.63-1.66-8.073-4.937 1.122-1.505 2.302-2.665 3.53-3.483L7.25 6.712c-.302.466-.481 1.015-.481 1.609 0 1.69 1.41 3.062 3.15 3.062.579 0 1.116-.156 1.58-.423l1.58 1.58c-1.023.463-2.076.718-3.16.718zm5.612-.387l.007-.005-1.077-1.077-.008.005-1.866-1.866.006-.007L8.35 5.679l-.008.005-1.605-1.606.008-.004-1.112-1.112c-.003 0-.006.003-.008.004L3.519.86c-.293-.293-.767-.293-1.06 0-.293.293-.293.767 0 1.06l1.847 1.848c-1.408.983-2.746 2.35-4 4.119L0 8.32l.307.433c2.823 3.984 6.057 6.004 9.612 6.004 1.492 0 2.924-.37 4.294-1.083l2.106 2.105c.146.147.338.22.53.22s.384-.073.53-.22c.293-.293.293-.767 0-1.06l-1.848-1.85z" fill="#AEA197" mask="url(#c)"/>
</g>
<g transform="translate(7 2.86)">
<mask id="a" fill="#fff">
<use xlink:href="#b"/>
</mask>
<path d="M12.53 6.887C9.71 2.903 6.476.883 2.92.883c-.956 0-1.887.158-2.794.449l1.233 1.234c.514-.11 1.033-.183 1.56-.183 2.916 0 5.63 1.66 8.074 4.938-.752 1.008-1.532 1.844-2.334 2.545l1.06 1.06c.977-.865 1.917-1.908 2.813-3.172l.308-.433-.308-.434z" fill="#AEA197" mask="url(#a)"/>
</g>
<path transform="translate(0 1.5)" d="M10.065 5.632l3 3c-.027-1.62-1.346-2.925-3-3" fill="#AEA197"/>
</g>
</svg>
