<svg width="351" height="341" viewBox="0 0 351 341" fill="none" xmlns="http://www.w3.org/2000/svg">
<path opacity="0.18" d="M79.2988 42.6247C60.7491 50.0492 40.9237 55.1636 24.5865 66.6566C8.24917 78.1495 -4.10579 98.4979 1.27868 117.731C5.45638 132.626 19.3859 144.274 20.018 159.75C20.5237 172.087 12.3637 182.862 8.03081 194.424C-0.721102 217.784 6.84703 244.993 22.3338 264.531C37.8206 284.069 60.1458 297.068 83.0168 307.021C137.218 330.534 196.621 339.479 255.343 332.972C272.846 331.007 290.505 327.559 306.021 319.226C321.536 310.894 334.805 297.085 339.144 280.018C345.045 256.831 334.006 231.805 340.04 208.652C342.402 199.573 347.298 191.281 349.384 182.132C354.401 160.083 342.178 137.563 326.628 121.151C311.078 104.739 291.885 91.8894 277.668 74.3051C267.818 62.1283 260.601 47.9632 250.475 36.0163C230.581 12.5074 198.452 -1.36468 167.628 0.106424C137.005 1.56029 108.175 31.057 79.2988 42.6247Z" fill="#27B05E"/>
<path d="M68.8403 310.67L69.7196 314.658C64.0075 318.801 56.6923 319.79 49.8194 321.381C42.9466 322.973 35.6601 325.737 32.1145 331.834C37.2231 338.454 46.7393 339.253 55.1005 339.471C122.526 341.23 189.984 341.471 257.475 340.195C278.886 339.787 300.418 339.218 321.433 335.098C322.939 334.805 324.622 334.368 325.375 333.029C326.662 330.731 324.226 328.162 322.002 326.817C314.626 322.399 306.172 320.106 297.574 320.192C294.344 320.232 290.103 319.887 289.362 316.744C289.109 315.595 289.454 314.445 289.414 313.296C289.322 310.423 286.857 308.124 284.15 307.262C281.443 306.4 278.513 306.688 275.68 306.946C222.289 312.083 168.077 308.095 114.508 305.36C106.014 304.923 98.0268 309.578 89.5909 308.498C81.6723 307.498 75.943 305.946 68.8403 310.67Z" fill="url(#paint0_linear)"/>
<path d="M262.537 21.5696H87.999C76.8847 21.5696 67.8748 30.5795 67.8748 41.6938V289.77C67.8748 300.884 76.8847 309.894 87.999 309.894H262.537C273.652 309.894 282.661 300.884 282.661 289.77V41.6938C282.661 30.5795 273.652 21.5696 262.537 21.5696Z" fill="#27B05E"/>
<path d="M262.537 21.5696H87.999C76.8847 21.5696 67.8748 30.5795 67.8748 41.6938V289.77C67.8748 300.884 76.8847 309.894 87.999 309.894H262.537C273.652 309.894 282.661 300.884 282.661 289.77V41.6938C282.661 30.5795 273.652 21.5696 262.537 21.5696Z" fill="url(#paint1_linear)"/>
<path d="M177.305 217.818L65.3751 217.111C61.1316 217.088 57.0526 218.752 54.0353 221.736C51.0179 224.72 49.3092 228.78 49.2849 233.023L49.1815 249.516C49.1679 251.619 49.5686 253.704 50.3609 255.653C51.1532 257.601 52.3215 259.374 53.7991 260.871C55.2767 262.368 57.0346 263.559 58.9725 264.376C60.9104 265.193 62.9903 265.621 65.0935 265.635L171.243 266.296C178.246 266.35 184.957 269.107 189.976 273.99L192.947 276.863L193.114 250.429L193.154 244.108L193.217 233.926C193.24 229.682 191.577 225.603 188.593 222.586C185.609 219.568 181.549 217.86 177.305 217.835V217.818Z" fill="url(#paint2_linear)"/>
<path d="M268.359 54.7269V282.782C268.355 287.518 266.473 292.059 263.124 295.408C259.775 298.757 255.234 300.639 250.498 300.642H101.245C98.9001 300.642 96.5784 300.181 94.4122 299.283C92.246 298.386 90.2777 297.071 88.6198 295.413C86.9619 293.755 85.6467 291.787 84.7495 289.621C83.8522 287.454 83.3904 285.133 83.3904 282.788V54.7269C83.3896 52.3823 83.8507 50.0604 84.7473 47.8939C85.6438 45.7274 86.9583 43.7588 88.6157 42.1003C90.2731 40.4418 92.241 39.1261 94.4069 38.2281C96.5728 37.3301 98.8943 36.8676 101.239 36.8668H250.481C252.828 36.8653 255.152 37.3261 257.32 38.2229C259.489 39.1197 261.459 40.435 263.12 42.0935C264.78 43.752 266.097 45.7214 266.996 47.8891C267.895 50.0567 268.358 52.3803 268.359 54.7269Z" fill="#27B05E"/>
<path opacity="0.69" d="M268.359 54.7269V282.782C268.355 287.518 266.473 292.059 263.124 295.408C259.775 298.757 255.234 300.639 250.498 300.642H101.245C98.9001 300.642 96.5784 300.181 94.4122 299.283C92.246 298.386 90.2777 297.071 88.6198 295.413C86.9619 293.755 85.6467 291.787 84.7495 289.621C83.8522 287.454 83.3904 285.133 83.3904 282.788V54.7269C83.3896 52.3823 83.8507 50.0604 84.7473 47.8939C85.6438 45.7274 86.9583 43.7588 88.6157 42.1003C90.2731 40.4418 92.241 39.1261 94.4069 38.2281C96.5728 37.3301 98.8943 36.8676 101.239 36.8668H250.481C252.828 36.8653 255.152 37.3261 257.32 38.2229C259.489 39.1197 261.459 40.435 263.12 42.0935C264.78 43.752 266.097 45.7214 266.996 47.8891C267.895 50.0567 268.358 52.3803 268.359 54.7269Z" fill="url(#paint3_linear)"/>
<path opacity="0.6" d="M176.168 63.9557C176.691 61.6571 177.213 59.3585 177.007 57.014C175.213 58.8559 172.762 59.9118 170.191 59.9504C169.886 59.9155 169.578 59.9736 169.306 60.1171C169.131 60.2819 168.999 60.4866 168.919 60.7137C168.84 60.9408 168.817 61.1836 168.852 61.4215C168.852 64.243 168.806 67.2197 167.364 69.639C165.922 72.0583 163.439 73.4317 160.847 74.2362C155.101 76.0636 148.9 75.2648 142.953 74.3454C141.591 74.1328 140.166 73.8914 139.085 73.0409C137.62 71.8916 137.12 69.8459 137.316 67.9955C137.511 66.1451 138.304 64.4154 139.039 62.6915C140.189 59.9619 141.125 57.0484 140.821 54.112C140.516 51.1755 138.649 48.2276 135.787 47.5035C135.186 47.3205 134.548 47.2946 133.935 47.4284C133.321 47.5622 132.752 47.8512 132.282 48.2678C131.831 48.7702 131.484 49.3559 131.259 49.9917C128.821 55.9903 127.243 62.3028 126.57 68.7425C123.248 68.4322 120.082 70.1217 116.801 70.5814C114.692 70.8802 85.5396 71.0297 83.4192 70.886C83.4192 70.886 83.1204 74.2362 83.9076 75.3165C84.6949 76.3969 88.9703 76.4141 90.2288 76.8911C99.1876 80.339 109.043 80.1149 118.593 80.9883C134.902 82.4767 154.503 87.6945 168.904 77.1669C173.381 73.8914 174.972 69.208 176.168 63.9557Z" fill="url(#paint4_linear)"/>
<path opacity="0.6" d="M198.671 141.125C198.952 135.649 197.32 130.242 195.113 125.219C192.907 120.197 190.131 115.45 187.936 110.422C187.361 109.152 186.971 107.416 188.085 106.595C188.43 107.457 189.769 107.21 190.436 106.56C191.102 105.911 191.585 104.98 192.51 104.767C193.831 106.902 194.964 109.148 195.895 111.479L202.423 126.42C203.118 128.018 203.848 129.667 205.164 130.805C207.204 132.563 210.204 132.73 212.818 132.667C214.553 132.619 216.281 132.446 217.99 132.149C219.904 131.816 222.07 131.264 223.197 129.632C224.92 127.104 223.277 123.512 224.346 120.633C224.85 119.438 225.663 118.399 226.702 117.622C228.029 116.548 229.857 115.709 231.408 116.427C232.178 116.858 232.825 117.479 233.287 118.231C237.31 123.84 239.557 130.713 244.424 135.592C247.222 135.562 249.906 134.478 251.94 132.557C253.906 130.69 255.388 128.38 256.923 126.156C259.566 122.34 262.457 118.685 265.347 115.077L268.462 111.163C268.548 111.033 268.672 110.933 268.818 110.876C269.174 110.784 269.393 111.238 269.496 111.6C270.645 116.881 267.163 122.007 263.428 125.903C260.554 128.908 257.262 131.81 255.239 135.367C255.072 135.66 254.965 135.984 254.923 136.318C254.881 136.653 254.906 136.992 254.995 137.318C255.085 137.643 255.238 137.947 255.445 138.213C255.653 138.479 255.911 138.701 256.204 138.867C256.526 139.05 256.882 139.161 257.25 139.195C264.066 139.769 271.042 138.43 277.903 139.264C279.978 139.516 282.408 140.292 282.747 142.482C282.812 143.035 282.741 143.597 282.541 144.117C282.34 144.638 282.017 145.102 281.598 145.47C280.139 146.86 278.15 147.136 276.219 147.372C254.48 150.044 232.546 150.82 210.663 151.538C209.801 151.617 208.932 151.545 208.095 151.325C206.279 150.751 205.221 148.889 204.193 147.303C202.659 144.989 200.799 142.908 198.671 141.125Z" fill="url(#paint5_linear)"/>
<path d="M310.222 157.112V171.685C310.232 173.534 309.879 175.367 309.181 177.079C308.483 178.791 307.455 180.349 306.155 181.664C304.855 182.979 303.309 184.025 301.605 184.742C299.901 185.459 298.072 185.834 296.223 185.845H203.348C197.202 185.824 191.293 188.215 186.89 192.505L184.282 195.027V157.101C184.274 154.109 185.215 151.192 186.971 148.769C188.726 146.347 191.205 144.544 194.051 143.619C195.427 143.177 196.863 142.952 198.309 142.953H296.229C298.078 142.963 299.906 143.338 301.61 144.055C303.314 144.773 304.859 145.819 306.159 147.134C307.458 148.448 308.486 150.006 309.183 151.719C309.88 153.431 310.233 155.264 310.222 157.112Z" fill="url(#paint6_linear)"/>
<path d="M158.491 88.2346L160.905 125.173H158.491L155.928 122.708C151.572 118.53 144.941 117.036 138.913 117.036H47.6126C43.9549 117.036 40.4469 115.583 37.8605 112.997C35.2741 110.41 33.821 106.902 33.821 103.244L34.6773 88.2346C34.6773 84.5769 36.1303 81.0689 38.7167 78.4825C41.3032 75.8961 44.8111 74.443 48.4689 74.443H144.723C146.966 74.438 149.177 74.9827 151.161 76.0295C153.146 77.0764 154.844 78.5934 156.106 80.4481C157.676 82.7403 158.508 85.4568 158.491 88.2346Z" fill="url(#paint7_linear)"/>
<path d="M160.899 88.2346V125.173L158.33 122.708C153.984 118.53 148.189 116.196 142.16 116.197H50.8306C47.1729 116.197 43.6649 114.744 41.0785 112.158C38.4921 109.571 37.0391 106.063 37.0391 102.405V88.2346C37.0391 84.5768 38.4921 81.0689 41.0785 78.4825C43.6649 75.8961 47.1729 74.443 50.8306 74.443H147.107C149.351 74.439 151.561 74.9841 153.546 76.0309C155.53 77.0776 157.228 78.5941 158.491 80.4481C160.068 82.7378 160.908 85.4544 160.899 88.2346Z" fill="white"/>
<path d="M310.222 155.928V170.093C310.222 173.751 308.769 177.259 306.182 179.846C303.596 182.432 300.088 183.885 296.43 183.885H205.147C199.117 183.886 193.32 186.219 188.971 190.396L186.385 192.844V155.928C186.385 152.28 187.83 148.781 190.404 146.196C192.978 143.612 196.471 142.152 200.119 142.137H296.447C300.102 142.141 303.606 143.596 306.188 146.182C308.771 148.768 310.222 152.274 310.222 155.928Z" fill="white"/>
<path d="M209.233 139.332C208.658 138.183 207.739 137.31 207.176 136.195C205.969 133.816 206.676 130.862 208.101 128.61C208.675 127.673 209.422 126.771 209.635 125.685C209.882 124.409 209.388 123.018 209.922 121.834C210.359 120.88 211.347 120.329 212.221 119.72C213.548 118.772 214.698 117.53 216.198 116.898C217.697 116.266 219.778 116.496 220.513 117.956C221.898 117.272 223.651 117.892 224.685 119.03C225.719 120.168 226.179 121.719 226.495 123.225C226.766 124.952 227.161 126.658 227.679 128.328C228.288 129.966 229.357 131.523 230.937 132.264C234.006 133.701 238.281 131.839 240.706 134.23C241.948 135.465 242.39 137.649 244.074 138.12C244.941 138.361 245.884 138.045 246.746 138.275C248.234 138.677 248.849 140.476 248.884 142.016C248.909 143.526 248.622 145.025 248.042 146.419C247.461 147.813 246.6 149.073 245.51 150.119C244.442 151.136 243.074 152.084 242.855 153.567C242.832 154.318 242.89 155.069 243.028 155.808C243.11 156.801 242.903 157.797 242.432 158.675C241.962 159.554 241.247 160.278 240.375 160.76C239.502 161.242 238.509 161.462 237.515 161.393C236.521 161.323 235.567 160.968 234.77 160.37C233.552 159.462 232.523 157.94 231.006 158.009C230.343 158.101 229.712 158.354 229.167 158.744C227.974 159.56 226.653 160.171 225.26 160.554C224.56 160.739 223.825 160.75 223.119 160.588C222.414 160.426 221.758 160.095 221.208 159.623C220.346 158.779 220.025 157.549 219.605 156.411C218.927 154.572 217.692 152.682 215.767 152.314C214.939 152.159 214.083 152.314 213.255 152.176C207.647 151.274 210.939 142.775 209.233 139.332Z" fill="#3F3D56"/>
<path d="M254.147 120.019C255.543 117.794 256.597 115.373 257.274 112.835C257.568 111.771 258.055 110.77 258.71 109.882C258.775 109.793 258.867 109.727 258.972 109.696C259.078 109.664 259.191 109.669 259.294 109.708C259.396 109.747 259.483 109.819 259.541 109.913C259.599 110.007 259.624 110.117 259.612 110.227L259.382 112.525C260.532 111.192 261.894 108.75 263.819 106.721C263.872 106.669 263.943 106.64 264.017 106.64C264.091 106.64 264.163 106.669 264.215 106.721C264.252 106.759 264.277 106.807 264.288 106.859C264.299 106.911 264.296 106.964 264.278 107.014L262.727 110.905C262.721 110.924 262.719 110.945 262.72 110.965C262.722 110.986 262.728 111.006 262.738 111.024C262.747 111.042 262.761 111.058 262.776 111.071C262.792 111.084 262.811 111.094 262.83 111.1C262.859 111.108 262.889 111.109 262.918 111.101C262.946 111.092 262.972 111.076 262.991 111.054L265.29 107.957C266.537 107.06 266.393 108.376 266.278 108.686L264.778 111.56C264.761 111.599 264.758 111.643 264.769 111.685C264.781 111.727 264.806 111.763 264.84 111.789C264.875 111.814 264.918 111.827 264.961 111.825C265.004 111.823 265.045 111.806 265.077 111.778C265.732 111.135 266.429 110.536 267.163 109.985C267.253 109.925 267.361 109.896 267.47 109.905C267.578 109.913 267.68 109.958 267.76 110.032C267.84 110.105 267.892 110.204 267.909 110.311C267.926 110.419 267.906 110.528 267.853 110.623L265.554 113.835C265.278 114.22 265.043 114.444 265.514 114.41L267.169 113.801C267.663 113.605 267.428 114.738 266.997 115.042C264.589 116.766 263.612 118.111 261.945 119.542C260.279 120.972 249.585 138.608 244.706 144.861C242.93 147.13 239.534 148.642 238.161 144.987C237.132 142.217 240.287 139.626 241.804 137.62C246.156 131.939 250.27 126.072 254.147 120.019Z" fill="url(#paint8_linear)"/>
<path d="M179.621 217.818L67.691 217.111C63.4475 217.088 59.3685 218.752 56.3512 221.736C53.3339 224.72 51.6252 228.78 51.6008 233.023L51.4974 249.516C51.4838 251.619 51.8846 253.704 52.6768 255.653C53.4691 257.601 54.6374 259.374 56.115 260.871C57.5926 262.368 59.3505 263.559 61.2884 264.376C63.2263 265.193 65.3062 265.621 67.4094 265.635L173.541 266.296C180.554 266.343 187.277 269.1 192.304 273.99L195.275 276.863L195.441 250.429L195.482 244.108L195.545 233.926C195.568 229.682 193.904 225.603 190.92 222.586C187.936 219.568 183.876 217.86 179.633 217.835L179.621 217.818Z" fill="white"/>
<path d="M159.916 29.1722H196.361C196.818 29.1722 197.256 29.3539 197.58 29.6772C197.903 30.0005 198.085 30.439 198.085 30.8962C198.085 31.3534 197.903 31.7919 197.58 32.1152C197.256 32.4385 196.818 32.6201 196.361 32.6201H159.916C159.459 32.6201 159.021 32.4385 158.697 32.1152C158.374 31.7919 158.192 31.3534 158.192 30.8962C158.192 30.439 158.374 30.0005 158.697 29.6772C159.021 29.3539 159.459 29.1722 159.916 29.1722Z" fill="url(#paint9_linear)"/>
<path d="M159.652 89.1427C156.618 90.4529 156.084 90.246 152.837 90.8149C149.59 91.3838 147.05 90.9701 143.958 89.815C141.838 96.2856 139.585 103.354 139.011 110.135C138.822 112.175 138.493 114.201 138.028 116.197H118.49C118.432 115.76 118.381 115.312 118.335 114.847C117.819 108.604 117.891 102.326 118.547 96.0959C118.6 95.7148 118.633 95.3312 118.645 94.9466C118.66 94.6328 118.636 94.3183 118.576 94.01C118.409 93.3468 118.133 92.7158 117.76 92.1424C116.984 90.7804 115.111 88.6945 114.071 87.1831C113.933 86.9763 113.807 86.7809 113.703 86.6085C114.329 83.7352 117.094 82.3273 118.381 79.7127C119.335 77.713 120.691 75.9311 122.363 74.4776C122.902 74.0235 123.479 73.6159 124.087 73.2594C126.294 71.9779 128.839 71.4665 131.379 71.0814C131.776 71.0182 132.167 70.9608 132.563 70.9091C134.191 72.098 136.13 72.7888 138.143 72.8973C138.777 72.8836 139.411 72.9512 140.028 73.0985C140.55 73.2978 141.039 73.5769 141.476 73.926L142.246 74.5006C143.66 75.5062 145.073 76.5234 146.487 77.5348C147.467 78.2803 148.511 78.938 149.607 79.5001C153.153 81.178 154.618 81.0229 158.514 80.5287C158.968 82.9824 159.428 86.6085 159.652 89.1427Z" fill="#27B05E"/>
<path d="M131.35 70.9147C130.333 71.8514 133.293 75.0867 134.367 75.9601C135.442 76.8336 137.074 76.8278 138.436 76.4256C139.344 76.1612 140.309 75.6498 140.556 74.7304C140.638 74.0758 140.578 73.4112 140.378 72.7823C140.131 71.4319 140.378 70.0125 140.01 68.6793C139.599 67.3339 138.762 66.1583 137.626 65.3291C136.562 64.4959 133.695 62.2835 133.103 64.4959C132.459 66.8519 133.729 68.708 131.35 70.9147Z" fill="url(#paint10_linear)"/>
<path d="M131.121 116.197H119.053C118.83 115.734 118.582 115.284 118.312 114.847C118.254 114.757 118.187 114.674 118.11 114.6C117.581 114.042 117.214 113.351 117.047 112.6C115.496 107.247 115.749 101.533 117.766 96.3373C117.95 95.8152 118.242 95.3375 118.622 94.9351C119.243 94.2743 119.944 93.9525 120.604 92.7342C121.909 90.3379 124.397 86.2522 125.627 83.8214C126.115 88.5393 124.282 92.9124 124.478 97.6475C124.575 100.406 124.679 103.21 125.627 105.807C126.413 107.951 127.656 109.898 129.27 111.514C129.868 112.198 130.804 114.456 131.121 116.197Z" fill="url(#paint11_linear)"/>
<path d="M158.491 80.4884C158.491 80.4884 159.508 87.9071 159.468 87.4819C159.428 87.0566 173.978 83.0915 178.133 69.3172C178.45 68.8589 178.838 68.4536 179.282 68.1162C184.454 64.2545 185.258 62.6283 183.713 63.5764C182.912 64.1258 181.943 64.3723 180.977 64.2718C181.547 63.7924 182.076 63.2657 182.558 62.6972C183.167 61.9559 184.5 61.1916 184.827 60.2952C184.875 60.195 184.895 60.0839 184.885 59.9734C184.855 59.8703 184.789 59.7811 184.7 59.7213C184.611 59.6614 184.503 59.6348 184.396 59.6458C184.189 59.6759 183.992 59.7547 183.822 59.8757C183.042 60.3628 182.296 60.9003 181.586 61.4847C181.144 61.8467 179.926 62.3352 180.345 61.4847C181 60.1343 182.454 59.2378 182.839 57.7897C182.871 57.7092 182.885 57.6224 182.879 57.5358C182.873 57.4492 182.848 57.3651 182.805 57.2898C182.655 57.1059 182.356 57.1633 182.138 57.2898C181.351 57.6461 178.977 60.9043 178.397 60.8296C177.817 60.7549 179.023 57.3472 179.069 56.6921C179.069 56.514 179.069 56.3014 178.914 56.2152C178.83 56.1842 178.738 56.1803 178.652 56.204C178.565 56.2277 178.488 56.2778 178.432 56.3473C176.914 57.6001 176.708 59.7952 175.731 61.5192C175.601 61.8103 175.364 62.0406 175.07 62.1628C174.443 62.3467 173.921 61.6341 173.283 61.4905C173.169 61.4501 173.046 61.4501 172.932 61.4905C172.582 61.6456 172.633 62.1915 172.846 62.5133C175.719 66.8922 168.404 77.4255 158.491 80.4884Z" fill="url(#paint12_linear)"/>
<path d="M115.703 87.9933C115.703 87.9933 112.686 112.278 114.996 116.197H120.013C118.985 108.394 119.179 100.478 120.587 92.7341C120.587 92.7341 120.145 88.9127 115.703 87.9933Z" fill="url(#paint13_linear)"/>
<path opacity="0.32" d="M100.141 86.5853H47.4461C45.6625 86.5853 44.2166 88.0312 44.2166 89.8149V89.8206C44.2166 91.6042 45.6625 93.0501 47.4461 93.0501H100.141C101.925 93.0501 103.371 91.6042 103.371 89.8206V89.8149C103.371 88.0312 101.925 86.5853 100.141 86.5853Z" fill="#27B05E"/>
<path opacity="0.32" d="M100.141 99.8196H47.4461C45.6625 99.8196 44.2166 101.265 44.2166 103.049V103.055C44.2166 104.838 45.6625 106.284 47.4461 106.284H100.141C101.925 106.284 103.371 104.838 103.371 103.055V103.049C103.371 101.265 101.925 99.8196 100.141 99.8196Z" fill="#27B05E"/>
<path opacity="0.32" d="M298.24 158.365H245.545C244.688 158.365 243.866 158.025 243.259 157.419C242.653 156.814 242.311 155.992 242.31 155.135C242.31 154.711 242.393 154.291 242.555 153.899C242.718 153.508 242.956 153.152 243.255 152.852C243.555 152.552 243.911 152.314 244.303 152.152C244.695 151.989 245.115 151.906 245.539 151.906H298.24C298.664 151.906 299.084 151.989 299.476 152.152C299.868 152.314 300.224 152.552 300.524 152.852C300.824 153.152 301.062 153.508 301.224 153.899C301.386 154.291 301.47 154.711 301.47 155.135C301.47 155.992 301.129 156.813 300.524 157.419C299.918 158.025 299.097 158.365 298.24 158.365Z" fill="#27B05E"/>
<path opacity="0.32" d="M298.24 171.599H245.545C244.688 171.599 243.866 171.259 243.259 170.654C242.653 170.048 242.311 169.227 242.31 168.37C242.311 167.946 242.396 167.527 242.559 167.137C242.723 166.746 242.961 166.392 243.262 166.093C243.562 165.795 243.919 165.559 244.31 165.398C244.702 165.238 245.121 165.156 245.545 165.157H298.24C299.097 165.157 299.918 165.497 300.524 166.103C301.129 166.709 301.47 167.53 301.47 168.387C301.464 169.24 301.121 170.056 300.516 170.658C299.911 171.259 299.093 171.598 298.24 171.599Z" fill="#27B05E"/>
<path opacity="0.32" d="M149.849 234.167H97.1591C96.3021 234.167 95.48 233.827 94.8735 233.221C94.2669 232.616 93.9254 231.794 93.9238 230.937C93.9238 230.079 94.2647 229.256 94.8714 228.65C95.4781 228.043 96.3011 227.702 97.1591 227.702H149.849C150.705 227.702 151.527 228.042 152.132 228.648C152.738 229.254 153.078 230.075 153.078 230.932C153.079 231.356 152.996 231.776 152.835 232.168C152.673 232.56 152.436 232.916 152.136 233.217C151.837 233.517 151.481 233.756 151.09 233.919C150.698 234.082 150.279 234.166 149.854 234.167H149.849Z" fill="#27B05E"/>
<path opacity="0.32" d="M149.854 242.47H97.159C95.3753 242.47 93.9294 243.916 93.9294 245.7V245.706C93.9294 247.489 95.3753 248.935 97.159 248.935H149.854C151.638 248.935 153.084 247.489 153.084 245.706V245.7C153.084 243.916 151.638 242.47 149.854 242.47Z" fill="#27B05E"/>
<path d="M242.126 147.257C241.742 148.342 241.092 149.314 240.235 150.084C238.632 151.55 236.598 152.469 235.017 153.957C231.512 157.256 230.932 162.525 230.564 167.324L229.282 183.885H205.147C203.417 183.887 201.692 184.079 200.004 184.46C200.314 180.016 200.582 175.572 200.808 171.128C201.234 162.778 201.251 153.595 195.93 147.142C195.378 146.618 194.997 145.938 194.838 145.194C194.769 144.338 195.349 143.579 195.895 142.895C195.93 142.861 195.953 142.826 195.987 142.786L199.539 138.448C199.718 138.158 199.954 137.906 200.233 137.709C200.511 137.512 200.826 137.372 201.159 137.298C201.744 137.335 202.293 137.594 202.693 138.022C204.061 139.267 205.308 140.639 206.417 142.12C207.147 143.039 207.859 143.97 208.618 144.866C212.198 149.096 217.663 152.072 222.823 148.682C226.368 146.281 230.061 144.106 233.88 142.171C235.659 141.308 237.483 140.541 239.344 139.873C239.235 140.763 239.712 141.487 240.304 142.171C240.94 142.819 241.5 143.538 241.971 144.315C242.189 144.771 242.315 145.265 242.341 145.77C242.368 146.275 242.295 146.78 242.126 147.257Z" fill="#27B05E"/>
<path d="M200.038 142.597C201.148 140.621 201.515 138.314 201.073 136.092C200.63 133.892 199.924 131.754 198.969 129.724L192.913 115.358C192.368 114.187 191.946 112.962 191.654 111.703C191.235 109.554 191.574 107.336 191.913 105.175C191.529 105.066 191.118 105.107 190.763 105.29C190.818 105.872 190.697 106.456 190.416 106.968C190.136 107.48 189.708 107.896 189.189 108.164C188.656 106.004 187.677 103.98 186.316 102.222C186.465 103.827 186.576 105.436 186.649 107.049C185.385 105.75 184.117 104.455 182.845 103.164C181.862 104.888 185.396 106.721 184.569 108.537L180.397 105.532C180.092 107.577 183.402 108.543 183.58 110.612L180.586 109.215C181.218 110.761 182.684 111.767 183.845 112.973C188.109 117.461 188.109 124.409 190.775 129.989C192.303 133.201 193.941 135.827 194.631 139.338C195.148 141.976 197.418 146.809 200.038 142.597Z" fill="url(#paint14_linear)"/>
<path d="M109.594 174.788C112.092 174.788 114.117 172.763 114.117 170.266C114.117 167.768 112.092 165.743 109.594 165.743C107.097 165.743 105.072 167.768 105.072 170.266C105.072 172.763 107.097 174.788 109.594 174.788Z" fill="#27B05E"/>
<path d="M123.495 174.788C125.993 174.788 128.018 172.763 128.018 170.266C128.018 167.768 125.993 165.743 123.495 165.743C120.997 165.743 118.973 167.768 118.973 170.266C118.973 172.763 120.997 174.788 123.495 174.788Z" fill="#27B05E"/>
<path d="M137.396 174.788C139.893 174.788 141.918 172.763 141.918 170.266C141.918 167.768 139.893 165.743 137.396 165.743C134.898 165.743 132.873 167.768 132.873 170.266C132.873 172.763 134.898 174.788 137.396 174.788Z" fill="#27B05E"/>
<path d="M220.801 251.515C223.298 251.515 225.323 249.491 225.323 246.993C225.323 244.495 223.298 242.47 220.801 242.47C218.303 242.47 216.278 244.495 216.278 246.993C216.278 249.491 218.303 251.515 220.801 251.515Z" fill="#27B05E"/>
<path d="M234.695 251.515C237.193 251.515 239.218 249.491 239.218 246.993C239.218 244.495 237.193 242.47 234.695 242.47C232.198 242.47 230.173 244.495 230.173 246.993C230.173 249.491 232.198 251.515 234.695 251.515Z" fill="#27B05E"/>
<path d="M248.59 251.515C251.088 251.515 253.113 249.491 253.113 246.993C253.113 244.495 251.088 242.47 248.59 242.47C246.093 242.47 244.068 244.495 244.068 246.993C244.068 249.491 246.093 251.515 248.59 251.515Z" fill="#27B05E"/>
<path d="M202.377 97.5669C204.875 97.5669 206.9 95.5422 206.9 93.0445C206.9 90.5468 204.875 88.522 202.377 88.522C199.88 88.522 197.855 90.5468 197.855 93.0445C197.855 95.5422 199.88 97.5669 202.377 97.5669Z" fill="#27B05E"/>
<path d="M216.278 97.5669C218.776 97.5669 220.8 95.5422 220.8 93.0445C220.8 90.5468 218.776 88.522 216.278 88.522C213.78 88.522 211.755 90.5468 211.755 93.0445C211.755 95.5422 213.78 97.5669 216.278 97.5669Z" fill="#27B05E"/>
<path d="M230.173 97.5669C232.671 97.5669 234.696 95.5422 234.696 93.0445C234.696 90.5468 232.671 88.522 230.173 88.522C227.675 88.522 225.651 90.5468 225.651 93.0445C225.651 95.5422 227.675 97.5669 230.173 97.5669Z" fill="#27B05E"/>
<path d="M148.74 64.2373C148.119 66.398 147.096 68.5242 145.366 69.9838C144.181 70.9736 142.727 71.5884 141.191 71.75C139.655 71.9116 138.106 71.6128 136.74 70.8914C135.374 70.17 134.254 69.0587 133.521 67.6989C132.789 66.339 132.477 64.7921 132.626 63.2547C132.626 63.0766 132.626 62.8582 132.5 62.7547C132.366 62.7088 132.22 62.7088 132.086 62.7547C131.241 62.8409 130.615 61.9675 130.362 61.163C130.132 60.5544 130.075 59.8943 130.196 59.2551C130.261 58.9387 130.408 58.6449 130.623 58.4038C130.838 58.1626 131.113 57.9825 131.42 57.8817C131.731 57.7948 132.064 57.8319 132.349 57.985C132.634 58.1382 132.849 58.3956 132.948 58.7035C133.067 57.5075 133.461 56.3552 134.097 55.336C134.742 54.008 135.613 52.8024 136.672 51.7732C137.806 50.8169 139.181 50.1893 140.647 49.9584C142.112 49.7274 143.613 49.9019 144.987 50.463C146.207 50.9672 147.306 51.7264 148.209 52.6897C149.111 53.653 149.798 54.7983 150.222 56.0486C150.555 57.1979 150.067 58.192 149.843 59.3126C149.469 60.9101 149.211 62.6341 148.74 64.2373Z" fill="url(#paint15_linear)"/>
<path d="M133.35 59.7895C133.316 59.8358 133.272 59.8741 133.221 59.9019C133.171 59.9296 133.115 59.9462 133.057 59.9504C132.833 59.9504 132.775 59.6401 132.758 59.4217C132.763 58.8825 132.557 58.3627 132.184 57.9736C132.091 57.881 131.982 57.8075 131.861 57.7574C131.74 57.7073 131.61 57.6815 131.48 57.6815C131.349 57.6815 131.219 57.7073 131.099 57.7574C130.978 57.8075 130.868 57.881 130.776 57.9736C130.397 55.4471 130.936 52.8686 132.293 50.7043C132.46 50.497 132.569 50.2492 132.609 49.986C132.609 49.647 132.413 49.3137 132.477 48.9804C132.55 48.7387 132.697 48.5259 132.896 48.3712C133.499 47.747 134.231 47.2608 135.04 46.9461C135.439 46.7904 135.869 46.7341 136.295 46.7822C136.72 46.8302 137.128 46.9812 137.482 47.2219C139.313 46.1419 141.396 45.5613 143.521 45.5382C144.756 45.5112 145.985 45.7199 147.142 46.1531C149.226 47.0189 150.913 48.6317 151.871 50.6756C152.807 52.7175 153.148 54.9823 152.854 57.2093C150.988 58.0531 148.866 58.1309 146.943 57.4259C145.02 56.7209 143.451 55.2895 142.573 53.4396C142.406 54.3407 142.504 55.2709 142.855 56.1175C142.155 55.7711 141.545 55.266 141.074 54.6426C140.603 54.0191 140.284 53.2943 140.143 52.5259C139.712 52.1237 139.056 52.6351 138.7 53.1006C137.781 54.3131 136.93 55.7382 135.827 56.7783C135.33 57.1486 134.873 57.5705 134.465 58.0368C134.022 58.577 133.839 59.2723 133.35 59.7895Z" fill="#3F3D56"/>
<path d="M222.042 148.918C221.84 150.521 220.346 151.9 218.72 152.291C218.308 152.4 217.88 152.435 217.456 152.394C215.157 152.159 214.111 149.32 214.157 147.004C214.203 144.688 214.732 142.326 213.675 140.355C213.675 140.292 213.611 140.229 213.577 140.166C213.002 139.149 211.997 138.39 211.485 137.327C211.014 136.126 210.91 134.812 211.186 133.552C211.87 128.747 215.634 116.053 222.886 120.806C224.765 122.036 225.886 124.162 226.53 126.311C228.805 133.891 223.944 133.758 222.042 148.918Z" fill="url(#paint16_linear)"/>
<path d="M220.013 122.357C220.984 122.932 221.467 124.081 221.686 125.231C222.312 128.42 221.295 131.672 220.726 134.873C220.157 138.074 220.151 141.769 222.398 144.125L222.45 144.183C223.304 145.052 224.469 145.546 225.688 145.557C226.906 145.568 228.079 145.094 228.949 144.24C229.385 143.816 229.731 143.308 229.966 142.746C230.075 142.499 230.202 142.257 230.334 142.022C231.207 140.476 232.426 139.149 233.293 137.597C234 136.292 234.489 134.881 234.742 133.419C235.061 131.93 235.071 130.39 234.77 128.897C234.196 126.391 232.472 124.3 230.667 122.513C228.863 120.725 227.03 119.22 224.748 118.427C222.467 117.634 219.743 117.76 217.853 119.249C217.278 119.708 215.698 121.547 216.519 122.352C217.215 122.972 218.996 121.737 220.013 122.357Z" fill="#3F3D56"/>
<path d="M116.295 87.9932L113.669 86.5853L115.571 89.177L115.697 87.9932H116.295Z" fill="url(#paint17_linear)"/>
<path d="M143.958 89.815C144.04 89.1553 144.369 88.5513 144.879 88.1248C145.389 87.6982 146.041 87.4808 146.705 87.5164C149.28 87.4417 159.267 86.1257 159.267 86.1257L159.652 89.1599C159.652 89.1599 150.82 92.8951 143.958 89.815Z" fill="url(#paint18_linear)"/>
<path opacity="0.18" d="M158.491 80.4884V81.8331C158.491 81.8331 149.762 84.1834 140.55 74.7017L139.976 73.0754C140.498 73.2747 140.987 73.5539 141.424 73.9029L142.194 74.4776L146.435 77.5117C147.415 78.2573 148.459 78.9149 149.555 79.477C153.101 81.155 154.566 80.9999 158.462 80.5057L158.491 80.4884Z" fill="white"/>
<path opacity="0.18" d="M131.828 73.0812C131.828 73.0812 122.754 72.6387 118.444 82.9824C117.519 85.1891 115.243 87.4417 115.243 87.4417L114.048 87.1888C113.91 86.982 113.784 86.7866 113.68 86.6142C114.307 83.7409 117.071 82.333 118.358 79.7184C119.312 77.7187 120.668 75.9368 122.34 74.4833C122.879 74.0292 123.456 73.6216 124.064 73.2651C126.271 71.9836 128.816 71.4722 131.356 71.0872L131.828 73.0812Z" fill="white"/>
<path d="M242.126 147.257C241.741 148.342 241.091 149.314 240.235 150.084C238.632 151.549 236.598 152.469 235.017 153.957C231.512 157.256 230.931 162.525 230.564 167.324L229.282 183.885H211.049C211.049 183.885 220.984 163.703 223.691 158.359C226.397 153.015 234.672 149.498 234.672 149.498C241.12 144.499 242.126 147.257 242.126 147.257Z" fill="url(#paint19_linear)"/>
<path d="M219.008 152.009C218.927 152.117 218.83 152.212 218.72 152.291C218.308 152.4 217.88 152.435 217.456 152.394C215.157 152.159 214.112 149.32 214.158 147.004C214.203 144.688 215.06 142.453 213.14 139.534C214.146 140.263 215.479 140.717 218.398 140.907C220.507 141.022 219.243 151.705 219.008 152.009Z" fill="url(#paint20_linear)"/>
<defs>
<linearGradient id="paint0_linear" x1="181.891" y1="373.261" x2="171.536" y2="228.294" gradientUnits="userSpaceOnUse">
<stop stop-opacity="0"/>
<stop offset="0.49" stop-opacity="0.2"/>
<stop offset="0.52" stop-opacity="0.23"/>
<stop offset="0.99"/>
</linearGradient>
<linearGradient id="paint1_linear" x1="164.077" y1="556.103" x2="176.104" y2="136.494" gradientUnits="userSpaceOnUse">
<stop offset="0.01"/>
<stop offset="1" stop-opacity="0"/>
</linearGradient>
<linearGradient id="paint2_linear" x1="44177.4" y1="32043.6" x2="44509" y2="42361.8" gradientUnits="userSpaceOnUse">
<stop offset="0.01"/>
<stop offset="1" stop-opacity="0"/>
</linearGradient>
<linearGradient id="paint3_linear" x1="177.311" y1="465.44" x2="174.84" y2="-45.5149" gradientUnits="userSpaceOnUse">
<stop offset="0.02" stop-color="white" stop-opacity="0"/>
<stop offset="0.58" stop-color="white" stop-opacity="0.39"/>
<stop offset="0.68" stop-color="white" stop-opacity="0.68"/>
<stop offset="1" stop-color="white"/>
</linearGradient>
<linearGradient id="paint4_linear" x1="130.069" y1="44.0843" x2="131.529" y2="292.603" gradientUnits="userSpaceOnUse">
<stop stop-opacity="0"/>
<stop offset="0.99"/>
</linearGradient>
<linearGradient id="paint5_linear" x1="39445.9" y1="19859.7" x2="38726.7" y2="-6885.48" gradientUnits="userSpaceOnUse">
<stop stop-opacity="0"/>
<stop offset="0.99"/>
</linearGradient>
<linearGradient id="paint6_linear" x1="67678.4" y1="19820" x2="67429.8" y2="28832.4" gradientUnits="userSpaceOnUse">
<stop offset="0.01"/>
<stop offset="1" stop-opacity="0"/>
</linearGradient>
<linearGradient id="paint7_linear" x1="33535" y1="13458.1" x2="33715.7" y2="21645.6" gradientUnits="userSpaceOnUse">
<stop offset="0.01"/>
<stop offset="1" stop-opacity="0"/>
</linearGradient>
<linearGradient id="paint8_linear" x1="237.96" y1="126.92" x2="267.916" y2="126.92" gradientUnits="userSpaceOnUse">
<stop stop-color="#ECC4D7"/>
<stop offset="0.42" stop-color="#EFD4D1"/>
<stop offset="1" stop-color="#F2EAC9"/>
</linearGradient>
<linearGradient id="paint9_linear" x1="12524.4" y1="1968.3" x2="12524.4" y2="1642.1" gradientUnits="userSpaceOnUse">
<stop stop-opacity="0"/>
<stop offset="0.99"/>
</linearGradient>
<linearGradient id="paint10_linear" x1="3264.6" y1="3938.27" x2="3410.02" y2="4005.54" gradientUnits="userSpaceOnUse">
<stop stop-color="#ECC4D7"/>
<stop offset="0.42" stop-color="#EFD4D1"/>
<stop offset="1" stop-color="#F2EAC9"/>
</linearGradient>
<linearGradient id="paint11_linear" x1="3507.43" y1="13755.1" x2="2294.31" y2="13641" gradientUnits="userSpaceOnUse">
<stop stop-opacity="0"/>
<stop offset="0.99"/>
</linearGradient>
<linearGradient id="paint12_linear" x1="10095.6" y1="9467.88" x2="11308" y2="9467.88" gradientUnits="userSpaceOnUse">
<stop stop-color="#ECC4D7"/>
<stop offset="0.42" stop-color="#EFD4D1"/>
<stop offset="1" stop-color="#F2EAC9"/>
</linearGradient>
<linearGradient id="paint13_linear" x1="2047.93" y1="10051.3" x2="2120.76" y2="10051.3" gradientUnits="userSpaceOnUse">
<stop stop-color="#ECC4D7"/>
<stop offset="0.42" stop-color="#EFD4D1"/>
<stop offset="1" stop-color="#F2EAC9"/>
</linearGradient>
<linearGradient id="paint14_linear" x1="8835.45" y1="16497" x2="9593.96" y2="16497" gradientUnits="userSpaceOnUse">
<stop stop-color="#ECC4D7"/>
<stop offset="0.42" stop-color="#EFD4D1"/>
<stop offset="1" stop-color="#F2EAC9"/>
</linearGradient>
<linearGradient id="paint15_linear" x1="139.447" y1="53.6983" x2="142.194" y2="70.0815" gradientUnits="userSpaceOnUse">
<stop offset="0.2" stop-color="#ECC4D7"/>
<stop offset="0.37" stop-color="#F0DCCE"/>
<stop offset="1" stop-color="#F2EAC9"/>
</linearGradient>
<linearGradient id="paint16_linear" x1="7738.73" y1="13585.6" x2="8189.04" y2="13585.6" gradientUnits="userSpaceOnUse">
<stop stop-color="#ECC4D7"/>
<stop offset="0.42" stop-color="#EFD4D1"/>
<stop offset="1" stop-color="#F2EAC9"/>
</linearGradient>
<linearGradient id="paint17_linear" x1="116.053" y1="87.3439" x2="114.226" y2="88.0334" gradientUnits="userSpaceOnUse">
<stop stop-color="#68E1FD"/>
<stop offset="0.2" stop-color="#5DB4CF"/>
<stop offset="0.46" stop-color="#50819B"/>
<stop offset="0.69" stop-color="#475C76"/>
<stop offset="0.87" stop-color="#41455E"/>
<stop offset="0.99" stop-color="#3F3D56"/>
</linearGradient>
<linearGradient id="paint18_linear" x1="5837.85" y1="1576.89" x2="5819.02" y2="1823.42" gradientUnits="userSpaceOnUse">
<stop stop-opacity="0"/>
<stop offset="0.99"/>
</linearGradient>
<linearGradient id="paint19_linear" x1="15240.5" y1="17180.9" x2="20072.2" y2="19376.2" gradientUnits="userSpaceOnUse">
<stop stop-opacity="0"/>
<stop offset="0.99"/>
</linearGradient>
<linearGradient id="paint20_linear" x1="3363.02" y1="5627.55" x2="2683.4" y2="5727.18" gradientUnits="userSpaceOnUse">
<stop stop-color="#ECC4D7"/>
<stop offset="0.42" stop-color="#EFD4D1"/>
<stop offset="1" stop-color="#F2EAC9"/>
</linearGradient>
</defs>
</svg>
