<svg width="200" height="200" viewBox="0 0 206 204" fill="none" xmlns="http://www.w3.org/2000/svg">
<path d="M41.2076 90.0655H0L3.64924 44.6731H37.5531L41.2076 90.0655Z" fill="#EBEBEB"/>
<path d="M21.7222 90.0654H19.4801V186.022H21.7222V90.0654Z" fill="#F5F5F5"/>
<path d="M29.74 186.022H11.4623C11.4623 185.506 11.6675 185.01 12.0328 184.645C12.3982 184.279 12.8937 184.074 13.4103 184.074H27.7972C28.313 184.076 28.8071 184.281 29.1713 184.647C29.5355 185.012 29.74 185.506 29.74 186.022V186.022Z" fill="#F0F0F0"/>
<path d="M19.4801 93.5887L21.7222 91.4516V90.0654H19.4801V93.5887Z" fill="#E0E0E0"/>
<path d="M187.519 26.1381H57.4375V88.443H187.519V26.1381Z" fill="#E0E0E0"/>
<path d="M192.297 26.1381H59.522V88.443H192.297V26.1381Z" fill="#F5F5F5"/>
<path d="M66.3952 37.0543V77.5267L185.429 77.5267V37.0543L66.3952 37.0543Z" fill="white"/>
<path d="M178.256 186.017H199.711C202.904 186.017 205.492 183.429 205.492 180.236V132.885C205.492 129.692 202.904 127.104 199.711 127.104H178.256C175.064 127.104 172.475 129.692 172.475 132.885V180.236C172.475 183.429 175.064 186.017 178.256 186.017Z" fill="#F5F5F5"/>
<path d="M168.369 186.017H189.824C193.016 186.017 195.605 183.429 195.605 180.236V132.885C195.605 129.692 193.016 127.104 189.824 127.104H168.369C165.177 127.104 162.588 129.692 162.588 132.885V180.236C162.588 183.429 165.177 186.017 168.369 186.017Z" fill="#E6E6E6"/>
<path d="M187.613 127.104H197.994C198.307 127.104 198.561 126.85 198.561 126.537V126.043C198.561 125.73 198.307 125.476 197.994 125.476H187.613C187.3 125.476 187.046 125.73 187.046 126.043V126.537C187.046 126.85 187.3 127.104 187.613 127.104Z" fill="#F5F5F5"/>
<path d="M184.163 127.104H194.544C194.857 127.104 195.111 126.85 195.111 126.537V126.043C195.111 125.73 194.857 125.476 194.544 125.476H184.163C183.85 125.476 183.596 125.73 183.596 126.043V126.537C183.596 126.85 183.85 127.104 184.163 127.104Z" fill="#E6E6E6"/>
<path d="M68.233 186.022L187.986 186.022C189.569 186.022 190.853 184.739 190.853 183.155V161.423C190.853 159.839 189.569 158.556 187.986 158.556H68.233C66.6497 158.556 65.3661 159.839 65.3661 161.423V183.155C65.3661 184.739 66.6497 186.022 68.233 186.022Z" fill="#F0F0F0"/>
<path d="M56.8126 107.802H158.829C162.037 107.802 164.862 110.701 165.13 114.271L167.844 150.107C168.117 153.678 165.744 156.576 162.52 156.576H60.4934C57.2799 156.576 54.4603 153.678 54.1925 150.107L51.4937 114.282C51.2154 110.727 53.6045 107.802 56.8126 107.802Z" fill="#EBEBEB"/>
<path d="M64.7045 107.802H166.731C169.944 107.802 172.764 110.701 173.032 114.271L175.736 150.107C176.004 153.678 173.636 156.576 170.407 156.576H68.38C65.1666 156.576 62.3469 153.678 62.0791 150.107L59.375 114.282C59.1072 110.727 61.4911 107.802 64.7045 107.802Z" fill="#FAFAFA"/>
<path d="M121.727 150.107L119.023 114.287C118.766 110.89 116.088 108.123 113.053 108.123V107.456C116.429 107.456 119.406 110.496 119.69 114.234L122.389 150.06L121.727 150.107Z" fill="#F0F0F0"/>
<path d="M59.7426 186.017H81.197C84.3898 186.017 86.978 183.429 86.978 180.236V132.885C86.978 129.692 84.3898 127.104 81.197 127.104H59.7426C56.5498 127.104 53.9616 129.692 53.9616 132.885L53.9616 180.236C53.9616 183.429 56.5498 186.017 59.7426 186.017Z" fill="#F5F5F5"/>
<path d="M83.8696 161.055H190.68C192.57 161.055 194.103 159.522 194.103 157.632V149.267C194.103 147.377 192.57 145.844 190.68 145.844H83.8696C81.9789 145.844 80.4461 147.377 80.4461 149.267V157.632C80.4461 159.522 81.9789 161.055 83.8696 161.055Z" fill="#F5F5F5"/>
<path d="M134.024 161.386V160.724C135.631 160.724 136.939 159.249 136.939 157.442V149.456C136.939 147.645 135.631 146.174 134.024 146.174V145.508C135.999 145.508 137.605 147.277 137.605 149.456V157.458C137.605 159.616 135.999 161.386 134.024 161.386Z" fill="#EBEBEB"/>
<path d="M49.8607 186.017H71.3152C74.5079 186.017 77.0962 183.429 77.0962 180.236V132.885C77.0962 129.692 74.5079 127.104 71.3152 127.104H49.8607C46.668 127.104 44.0797 129.692 44.0797 132.885L44.0797 180.236C44.0797 183.429 46.668 186.017 49.8607 186.017Z" fill="#E6E6E6"/>
<path d="M153.877 105.523C168.207 106.81 170.454 124.851 171.467 131.667C172.481 138.482 159.648 131.409 151.646 132.192C143.644 132.974 141.039 136.093 132.113 134.665C123.187 133.237 119.459 132.229 113.321 133.242C107.183 134.255 96.3873 134.623 95.2741 132.691C94.224 130.911 91.3256 112.181 85.6496 108.427C84.736 107.823 85.0825 106.967 86.3899 106.579C97.1749 103.376 140.976 104.368 153.877 105.523Z" fill="#E6E6E6"/>
<path d="M178.823 52.2393C178.837 50.9229 178.544 49.6215 177.968 48.4378C177.474 47.5715 176.161 45.2874 159.795 45.2874V44.7623C176.466 44.7623 177.789 47.0831 178.424 48.1963C179.042 49.4536 179.357 50.8384 179.343 52.2393H178.823Z" fill="#34D399"/>
<path d="M178.225 61.3283L177.7 61.2075C178.087 59.5598 178.388 57.8931 178.603 56.2141L179.128 56.2824C178.918 57.9794 178.616 59.6638 178.225 61.3283V61.3283Z" fill="#34D399"/>
<path d="M176.828 49.0836C174.628 45.219 143.654 46.5632 137.91 48.2119C130.139 50.4488 126.647 70.5117 126.054 75.3529C126.054 75.3529 130.617 70.5642 134.639 69.3513C136.555 70.0234 157.679 73.7146 161.612 74.7648C166.106 75.9672 170.879 74.7648 173.074 70.8478C175.269 66.9307 179.123 53.1214 176.828 49.0836Z" fill="#34D399"/>
<path d="M169.881 54.6757C169.819 54.6808 169.755 54.6808 169.692 54.6757C155.043 52.5754 138.088 54.0718 137.92 54.0876C137.748 54.1031 137.574 54.0845 137.409 54.0329C137.244 53.9812 137.09 53.8976 136.958 53.7866C136.825 53.6757 136.715 53.5397 136.635 53.3864C136.554 53.2331 136.505 53.0654 136.49 52.893C136.474 52.7206 136.493 52.5469 136.544 52.3817C136.596 52.2165 136.68 52.0631 136.791 51.9302C136.901 51.7974 137.037 51.6876 137.191 51.6073C137.344 51.527 137.512 51.4777 137.684 51.4622C137.857 51.4622 155.116 49.9343 170.065 52.066C170.413 52.0904 170.738 52.2521 170.967 52.5155C171.195 52.7789 171.31 53.1225 171.286 53.4706C171.262 53.8188 171.1 54.143 170.837 54.3719C170.573 54.6008 170.23 54.7158 169.881 54.6914V54.6757Z" fill="white"/>
<path d="M167.755 61.7011C167.678 61.7089 167.601 61.7089 167.524 61.7011C156.949 59.8952 146.215 59.1913 135.495 59.6008C135.146 59.6217 134.804 59.5034 134.543 59.272C134.282 59.0406 134.124 58.715 134.103 58.3669C134.082 58.0187 134.201 57.6765 134.432 57.4156C134.663 57.1546 134.989 56.9963 135.337 56.9754C146.26 56.5433 157.198 57.2472 167.975 59.0757C168.148 59.0902 168.316 59.1385 168.469 59.2178C168.623 59.2972 168.76 59.406 168.871 59.5381C168.983 59.6703 169.068 59.8231 169.12 59.9879C169.173 60.1527 169.192 60.3263 169.178 60.4986C169.163 60.671 169.115 60.8389 169.036 60.9926C168.956 61.1463 168.848 61.2829 168.715 61.3946C168.583 61.5062 168.43 61.5907 168.266 61.6433C168.101 61.6959 167.927 61.7155 167.755 61.7011Z" fill="white"/>
<path d="M159.081 68.8944C158.958 68.8943 158.837 68.8784 158.718 68.8472C150.692 66.6024 142.371 65.5914 134.04 65.849C133.692 65.8713 133.349 65.7544 133.087 65.524C132.825 65.2935 132.666 64.9685 132.643 64.6204C132.621 64.2722 132.738 63.9295 132.968 63.6676C133.199 63.4056 133.524 63.246 133.872 63.2237C142.503 62.9207 151.128 63.9641 159.438 66.3163C159.741 66.4047 160.002 66.5992 160.173 66.8642C160.344 67.1293 160.414 67.4471 160.37 67.7596C160.326 68.072 160.171 68.3582 159.933 68.5656C159.696 68.7731 159.391 68.8879 159.076 68.8892L159.081 68.8944Z" fill="white"/>
<path d="M28.8002 44.2793C30.4856 40.1627 52.3443 38.1359 58.2514 39.0286C66.243 40.2467 72.4703 61.1183 73.4785 66.8573C73.4785 66.8573 68.3433 62.6883 64.1952 62.0057C62.3837 62.9141 51.1577 66.8888 47.1829 67.7815C42.641 68.7844 37.9889 68.9524 35.311 65.3609C32.6332 61.7694 27.0359 48.5744 28.8002 44.2793Z" fill="#34D399"/>
<path opacity="0.1" d="M58.2514 39.0339C52.3443 38.1307 30.4856 40.1628 28.8054 44.2846C28.4849 45.2404 28.3826 46.2559 28.5061 47.2565C32.7067 53.8986 39.1441 59.0023 46.5371 59.3331C55.5105 59.6272 64.4262 55.1903 67.8864 49.9396C65.2821 44.3896 61.9636 39.6009 58.2514 39.0339Z" fill="black"/>
<path d="M67.0969 45.7874C72.3028 39.1385 71.133 29.5283 64.4841 24.3224C57.8352 19.1165 48.225 20.2862 43.0191 26.9351C37.8132 33.584 38.983 43.1942 45.6319 48.4001C52.2808 53.606 61.891 52.4363 67.0969 45.7874Z" fill="#34D399"/>
<path opacity="0.4" d="M67.0969 45.7874C72.3028 39.1385 71.133 29.5283 64.4841 24.3224C57.8352 19.1165 48.225 20.2862 43.0191 26.9351C37.8132 33.584 38.983 43.1942 45.6319 48.4001C52.2808 53.606 61.891 52.4363 67.0969 45.7874Z" fill="white"/>
<path d="M54.3396 31.6093C54.5234 31.9821 53.9668 32.5754 53.0952 32.9324C52.2235 33.2895 51.3729 33.2842 51.1839 32.9324C50.9949 32.5806 51.5567 31.9663 52.4283 31.6093C53.2999 31.2522 54.14 31.2417 54.3396 31.6093Z" fill="#34D399"/>
<path d="M50.2545 27.8602C51.2404 27.4838 52.2866 27.2898 53.3419 27.2879C53.869 27.2814 54.3957 27.3165 54.9172 27.3929C55.4538 27.4701 55.9814 27.6002 56.4924 27.7814C56.6151 27.8118 56.7228 27.8854 56.7957 27.9888C56.8685 28.0922 56.9016 28.2184 56.8888 28.3442C56.876 28.47 56.8183 28.587 56.7261 28.6737C56.634 28.7603 56.5137 28.8108 56.3873 28.8158C55.9778 28.8631 55.521 28.9523 55.0852 29.0416C54.6494 29.1309 54.2188 29.2674 53.7882 29.4092C52.9126 29.6998 52.0819 30.1116 51.3204 30.6326C51.5686 30.2078 51.8783 29.8221 52.2393 29.4879C52.6114 29.1655 53.0182 28.8855 53.4522 28.6531C53.8872 28.4214 54.3424 28.2298 54.8121 28.0807C55.2877 27.9201 55.7786 27.8093 56.2771 27.7499L56.1353 28.7581C55.6807 28.6077 55.2179 28.4833 54.7491 28.3853C54.2661 28.275 53.783 28.1962 53.2894 28.128C52.7959 28.0597 52.297 27.9967 51.793 27.9652C51.2889 27.9337 50.7796 27.9075 50.2545 27.8602Z" fill="#263238"/>
<path d="M64.61 24.7991C64.3363 24.9293 64.073 25.0803 63.8224 25.2507C63.5866 25.401 63.3682 25.5771 63.1713 25.7757C62.9783 25.9682 62.8026 26.1773 62.6463 26.4006C62.4921 26.6132 62.3585 26.84 62.2472 27.0779L61.6329 26.5528C61.9576 26.3517 62.312 26.2028 62.683 26.1118C63.0445 26.0184 63.4179 25.9795 63.7909 25.9963C64.5207 26.0121 65.2253 26.2666 65.7967 26.7209C65.4644 26.6507 65.1275 26.6051 64.7885 26.5843C64.4659 26.5639 64.142 26.578 63.8224 26.6264C63.5111 26.6735 63.2051 26.7509 62.9088 26.8574C62.6235 26.9594 62.3491 27.0895 62.0897 27.2459V27.2459C62.0435 27.275 61.992 27.2946 61.9383 27.3037C61.8845 27.3128 61.8294 27.3112 61.7763 27.299C61.7231 27.2868 61.6729 27.2642 61.6285 27.2326C61.584 27.201 61.5463 27.1609 61.5173 27.1147C61.4878 27.056 61.4724 26.9913 61.4724 26.9256C61.4724 26.86 61.4878 26.7952 61.5173 26.7366C61.645 26.4201 61.8223 26.1259 62.0424 25.865C62.245 25.6283 62.4801 25.4214 62.7408 25.2507C63.0168 25.0717 63.32 24.9387 63.6386 24.8569C63.9562 24.7783 64.2854 24.7587 64.61 24.7991Z" fill="#263238"/>
<path d="M67.0096 28.6847C67.0463 29.0837 66.3532 29.467 65.4344 29.5458C64.5155 29.6245 63.7909 29.341 63.7594 28.9577C63.7279 28.5744 64.4157 28.1753 65.3083 28.0966C66.201 28.0178 66.9676 28.2909 67.0096 28.6847Z" fill="#34D399"/>
<path d="M54.7229 33.6255C58.2764 31.8328 62.1336 30.7198 66.0959 30.3438C66.2516 30.3316 66.406 30.379 66.5279 30.4765C66.6499 30.5741 66.7301 30.7144 66.7523 30.8689C67.1881 35.3425 59.0127 37.6948 54.6756 34.5444C54.5957 34.4949 54.5305 34.4249 54.4869 34.3416C54.4433 34.2583 54.4228 34.1649 54.4276 34.071C54.4325 33.9771 54.4624 33.8862 54.5143 33.8079C54.5663 33.7295 54.6383 33.6665 54.7229 33.6255Z" fill="#263238"/>
<path d="M62.872 32.8117C62.5917 32.9557 62.3292 33.1319 62.0896 33.3367C61.3192 33.1626 60.5119 33.2667 59.8108 33.6308C59.3398 33.8303 58.9232 34.1391 58.5954 34.5318C58.2676 34.9244 58.038 35.3895 57.9258 35.8886C58.9678 36.0649 60.031 36.0755 61.0763 35.9201C61.8672 35.8095 62.6415 35.6013 63.3813 35.3005C64.5015 34.8928 65.4755 34.1618 66.1799 33.2002C65.5656 32.3496 64.1794 32.1816 62.872 32.8117Z" fill="#34D399"/>
<path d="M95.6259 3.27651C88.7317 -3.71219 73.3209 1.23923 79.1964 10.9636C85.072 20.6879 98.2145 27.7658 100.782 31.4781C102.531 23.9013 107.403 19.0707 110.569 12.7383C113.736 6.40594 105.419 -2.93508 95.6259 3.27651Z" fill="#34D399"/>
<path opacity="0.3" d="M95.6259 3.27651C88.7317 -3.71219 73.3209 1.23923 79.1964 10.9636C85.072 20.6879 98.2145 27.7658 100.782 31.4781C102.531 23.9013 107.403 19.0707 110.569 12.7383C113.736 6.40594 105.419 -2.93508 95.6259 3.27651Z" fill="black"/>
<path d="M121.381 150.937H125.497L142.473 203.791H141.097L121.381 150.937Z" fill="#34D399"/>
<path d="M104.736 150.937H108.858L115.285 203.791H113.909L104.736 150.937Z" fill="#34D399"/>
<path d="M80.7506 150.937H76.6288L59.6585 203.791H61.0342L80.7506 150.937Z" fill="#34D399"/>
<path d="M97.3902 150.937H93.2736L86.8467 203.791H88.2224L97.3902 150.937Z" fill="#34D399"/>
<path d="M117.836 162.651C97.9572 162.882 69.7032 162.221 57.2117 137.758C48.7476 121.181 39.6954 85.9753 64.4945 75.9097C89.2936 65.8441 127.377 77.2066 127.015 96.6973C126.652 116.188 147.083 120.961 153.793 134.229C162.084 150.711 144.032 162.347 117.836 162.651Z" fill="#34D399"/>
<path opacity="0.7" d="M117.836 162.651C97.9572 162.882 69.7032 162.221 57.2117 137.758C48.7476 121.181 39.6954 85.9753 64.4945 75.9097C89.2936 65.8441 127.377 77.2066 127.015 96.6973C126.652 116.188 147.083 120.961 153.793 134.229C162.084 150.711 144.032 162.347 117.836 162.651Z" fill="white"/>
<path opacity="0.3" d="M138.698 144.09C138.488 147.109 124.132 148.569 106.637 147.351C89.1413 146.133 78.0833 145.208 74.8804 138.32C68.422 124.421 67.5871 83.7121 85.0878 84.9408C102.588 86.1695 138.908 141.071 138.698 144.09Z" fill="#34D399"/>
<path d="M112.339 83.7542L112.476 84.694L112.638 85.6969L112.99 87.7237C113.247 89.0731 113.515 90.4278 113.814 91.772C114.405 94.4335 115.134 97.0624 115.999 99.648C116.225 100.278 116.429 100.929 116.687 101.544C116.944 102.158 117.149 102.804 117.427 103.402C117.705 104.001 117.952 104.673 118.146 105.098C118.246 105.324 118.325 105.518 118.367 105.623C118.409 105.728 118.435 105.739 117.994 105.513C117.56 105.309 117.082 105.215 116.603 105.24C116.277 105.259 115.958 105.334 115.657 105.461C115.535 105.517 115.416 105.58 115.3 105.65C115.211 105.709 115.125 105.774 115.043 105.844C114.88 105.963 114.753 106.124 114.676 106.311C114.676 106.379 114.676 106.385 114.733 106.348C115.038 105.972 115.277 105.548 115.442 105.093C115.941 103.969 116.372 102.583 116.834 101.302L121.218 101.517C121.507 103.124 121.606 104.76 121.512 106.39C121.459 107.383 121.26 108.363 120.924 109.299C120.797 109.642 120.637 109.973 120.446 110.286C120.155 110.771 119.782 111.201 119.343 111.557C119.188 111.681 119.025 111.795 118.855 111.898C118.664 112.018 118.462 112.12 118.251 112.202C117.783 112.4 117.284 112.512 116.776 112.533C115.931 112.565 115.093 112.369 114.35 111.966C113.606 111.562 112.939 111.028 112.381 110.391C112.019 109.99 111.685 109.563 111.383 109.115C110.913 108.412 110.487 107.681 110.107 106.926C109.362 105.535 108.689 104.106 108.091 102.646C106.906 99.7826 105.932 96.8361 105.177 93.8303C104.794 92.3391 104.473 90.8374 104.19 89.3252C104.048 88.5691 103.922 87.8129 103.807 87.0463C103.754 86.663 103.702 86.2745 103.654 85.8859C103.607 85.4974 103.565 85.1298 103.518 84.6573L112.339 83.7542Z" fill="#FF8B7B"/>
<path d="M100.971 82.2997C98.2986 87.2774 105.004 100.467 105.004 100.467L117.08 93.8985C117.08 93.8985 116.172 90.4068 113.19 83.7279C109.918 76.4557 104.221 76.2666 100.971 82.2997Z" fill="#263238"/>
<path d="M116.634 102.73L116.87 96.818L123.602 99.0811C123.602 99.0811 122.735 104.426 119.826 104.426L116.634 102.73Z" fill="#FF8B7B"/>
<path d="M121.36 92.612L123.586 93.8039C124.014 94.0349 124.346 94.41 124.524 94.8627C124.702 95.3154 124.714 95.8165 124.557 96.277L123.602 99.0809L116.87 96.8178L118.561 93.4941C118.685 93.2509 118.857 93.0348 119.065 92.8584C119.274 92.682 119.515 92.5489 119.776 92.4668C120.036 92.3847 120.31 92.3552 120.582 92.3802C120.854 92.4051 121.118 92.4839 121.36 92.612V92.612Z" fill="#FF8B7B"/>
<path d="M107.309 77.9836C100.585 76.5325 93.6757 76.141 86.831 76.8232C84.6765 77.0416 82.6589 77.9813 81.1054 79.49C79.5519 80.9987 78.5536 82.9879 78.2724 85.1351C75.5368 105.818 77.2695 116.818 77.1382 122.478L108.312 125.24C108.06 119.317 108.532 103.859 111.462 84.001C111.659 82.6587 111.339 81.2919 110.569 80.1755C109.798 79.0591 108.633 78.276 107.309 77.9836V77.9836Z" fill="#263238"/>
<path d="M132.885 148.249L138.734 148.391L141.218 134.912L135.363 134.765L132.885 148.249Z" fill="#FF8B7B"/>
<path d="M139.564 147.366L133.484 145.445C133.377 145.407 133.261 145.412 133.158 145.456C133.055 145.501 132.972 145.583 132.927 145.686L130.748 150.459C130.696 150.581 130.671 150.712 130.672 150.845C130.674 150.977 130.703 151.107 130.758 151.228C130.813 151.348 130.892 151.456 130.991 151.544C131.089 151.632 131.205 151.699 131.331 151.74C133.536 152.391 134.282 152.444 137.038 153.316C140.262 154.334 141.559 155.111 145.34 156.308C147.624 157.028 148.758 154.849 147.849 154.318C144.983 152.649 141.764 150.013 140.808 148.238C140.519 147.8 140.074 147.488 139.564 147.366V147.366Z" fill="#263238"/>
<path opacity="0.2" d="M141.213 134.917L139.937 141.864L134.082 141.717L135.358 134.77L141.213 134.917Z" fill="black"/>
<path d="M143.864 99.8633C136.708 96.2875 118.545 115.521 95.5157 124.106C95.0169 132.89 104.857 137.411 115.39 136.13C125.823 134.859 129.677 129.33 132.885 121.717C131.079 129.535 132.796 137.658 132.796 137.658L141.874 140.22C141.874 140.22 150.428 103.129 143.864 99.8633Z" fill="#34D399"/>
<path opacity="0.2" d="M143.864 99.8633C136.708 96.2875 118.545 115.521 95.5157 124.106C95.0169 132.89 104.857 137.411 115.39 136.13C125.823 134.859 129.677 129.33 132.885 121.717C131.079 129.535 132.796 137.658 132.796 137.658L141.874 140.22C141.874 140.22 150.428 103.129 143.864 99.8633Z" fill="black"/>
<path d="M142.924 141.349L131.2 140.267L130.948 136.408L144.038 137.411L142.924 141.349Z" fill="#263238"/>
<path d="M138.876 147.351C138.854 147.338 138.836 147.319 138.823 147.297C138.81 147.275 138.803 147.25 138.803 147.225C138.803 147.196 138.812 147.168 138.829 147.144C138.846 147.121 138.87 147.103 138.897 147.093C139.175 146.994 141.675 146.143 142.32 146.637C142.382 146.682 142.43 146.743 142.46 146.813C142.491 146.883 142.502 146.96 142.494 147.036V147.036C142.491 147.161 142.457 147.285 142.396 147.394C142.335 147.504 142.247 147.597 142.142 147.666C141.428 148.138 139.8 147.666 138.897 147.356L138.876 147.351ZM142.105 146.826C141.69 146.61 140.362 146.915 139.38 147.219C140.63 147.613 141.591 147.692 142.005 147.429C142.075 147.383 142.132 147.32 142.172 147.247C142.212 147.174 142.234 147.093 142.236 147.009C142.242 146.979 142.238 146.948 142.226 146.921C142.214 146.893 142.194 146.869 142.168 146.852L142.105 146.826Z" fill="#34D399"/>
<path d="M138.876 147.351L138.845 147.324C138.827 147.308 138.814 147.287 138.808 147.264C138.801 147.241 138.801 147.216 138.808 147.193C138.808 147.13 139.196 145.592 140.021 145.093C140.137 145.019 140.268 144.969 140.404 144.948C140.54 144.926 140.68 144.932 140.814 144.967V144.967C141.186 145.056 141.265 145.266 141.27 145.424C141.27 146.091 139.721 147.151 138.981 147.361C138.946 147.371 138.908 147.368 138.876 147.351V147.351ZM140.882 145.277C140.838 145.256 140.792 145.24 140.745 145.229V145.229C140.647 145.206 140.544 145.202 140.444 145.218C140.344 145.235 140.249 145.27 140.163 145.324C139.637 145.655 139.286 146.558 139.149 147.004C139.921 146.673 141.003 145.823 140.992 145.429C140.976 145.382 140.976 145.334 140.856 145.277H140.882Z" fill="#34D399"/>
<path d="M102.746 78.2146C99.3067 76.6761 99.921 74.6178 101.05 72.3653L93.8145 65.7756C94.0717 68.6688 94.0192 73.5099 92.024 76.0408C91.7069 76.4276 91.5499 76.921 91.585 77.4199C91.6202 77.9188 91.8449 78.3854 92.213 78.7239C94.4838 80.8358 97.3314 82.2249 100.394 82.7144C103.927 83.334 104.715 81.8481 104.484 80.3516C104.395 79.8788 104.19 79.4357 103.886 79.0625C103.583 78.6893 103.191 78.3978 102.746 78.2146Z" fill="#FF8B7B"/>
<path opacity="0.2" d="M96.7654 68.464C95.9935 68.1962 95.8202 69.2464 95.8202 70.7271C95.8202 72.2078 98.3353 74.8122 100.226 74.5864C100.393 73.8091 100.675 73.0608 101.06 72.3653L96.7654 68.464Z" fill="black"/>
<path d="M109.409 63.6545C111.399 61.7327 113.946 56.4242 113.415 53.8041C111.366 52.8423 109.053 52.5963 106.847 53.1058C105.011 53.6637 103.294 54.5535 101.78 55.7311L105.004 58.4825L104.941 60.3413L106.736 62.3313L106.211 64.127C106.166 64.2855 106.167 64.4539 106.216 64.6114C106.265 64.769 106.359 64.9089 106.486 65.0138C106.613 65.1187 106.768 65.1841 106.932 65.202C107.096 65.2198 107.262 65.1893 107.409 65.1142L109.409 63.6545Z" fill="#263238"/>
<path d="M95.2374 56.7971C93.7409 62.3996 92.5753 65.6077 94.4183 69.3305C97.1906 74.9277 104.841 74.6232 107.991 69.5668C110.827 65.0144 112.796 56.6185 108.128 52.6805C107.094 51.809 105.857 51.214 104.53 50.9511C103.204 50.6882 101.833 50.7661 100.545 51.1774C99.2574 51.5886 98.0949 52.3199 97.1666 53.3027C96.2383 54.2856 95.5745 55.4878 95.2374 56.7971V56.7971Z" fill="#FF8B7B"/>
<path d="M92.6698 60.168C92.381 56.7077 92.1447 54.1034 92.1447 51.0475C93.6569 50.6642 95.9882 49.6245 98.4455 50.7797C100.148 51.6677 101.673 52.8601 102.945 54.2977L99.2699 56.3979L98.9969 58.2409L96.8966 59.8739L97.0856 61.7327C97.1021 61.8967 97.0703 62.062 96.994 62.2082C96.9178 62.3544 96.8005 62.4751 96.6565 62.5555C96.5125 62.6358 96.3482 62.6723 96.1837 62.6605C96.0193 62.6486 95.8619 62.5889 95.7309 62.4888L92.6698 60.168Z" fill="#263238"/>
<path d="M113.421 55.4739C116.083 54.0824 119.721 47.3563 113.484 47.6398C109.456 47.8236 104.521 48.3592 100.325 46.0016C100.325 46.0016 101.543 48.1019 104.673 48.3749C111.473 48.9945 111.688 47.8918 113.72 48.3749C117.296 49.152 113.421 55.4739 113.421 55.4739Z" fill="#263238"/>
<path d="M113.956 49.404C109.467 46.8994 104.536 48.8474 100.719 47.3982C96.9018 45.949 92.801 48.2173 92.1079 51.0737L102.93 54.3239C107.03 57.2695 107.97 57.8839 110.218 57.217C113.484 56.2299 118.44 51.9191 113.956 49.404Z" fill="#263238"/>
<path d="M93.0269 50.449C91.1051 50.806 90.0812 52.4915 91.7404 54.6495C91.1366 52.3235 92.9849 51.5306 92.9849 51.5306L93.0269 50.449Z" fill="#263238"/>
<path d="M90.8268 61.3284C90.951 62.0389 91.2144 62.7177 91.6019 63.326C91.9894 63.9342 92.4933 64.4599 93.0846 64.8727C94.6598 65.9648 96.109 64.6941 96.2035 62.8669C96.2823 61.2234 95.5524 58.6663 93.6937 58.3093C91.8349 57.9522 90.538 59.5694 90.8268 61.3284Z" fill="#FF8B7B"/>
<path d="M102.73 60.6721C102.583 61.1184 102.699 61.5594 102.993 61.6539C103.287 61.7484 103.644 61.4649 103.796 61.0186C103.948 60.5723 103.828 60.1312 103.534 60.0367C103.239 59.9422 102.882 60.2257 102.73 60.6721Z" fill="#263238"/>
<path d="M108.165 62.6936C108.018 63.1399 108.133 63.5809 108.427 63.6754C108.721 63.77 109.078 63.4864 109.231 63.0401C109.383 62.5938 109.262 62.1527 108.968 62.0582C108.674 61.9637 108.317 62.2472 108.165 62.6936Z" fill="#263238"/>
<path d="M106.479 62.4205C106.479 62.4205 106.637 65.3294 107.346 66.9414C106.295 67.4192 105.067 66.6474 105.067 66.6474L106.479 62.4205Z" fill="#FF5652"/>
<path d="M102.772 67.1987C102.292 66.979 101.863 66.6628 101.511 66.2698C101.158 65.8768 100.891 65.4155 100.724 64.9146C100.72 64.897 100.718 64.8787 100.721 64.8606C100.723 64.8425 100.729 64.825 100.738 64.8092C100.747 64.7933 100.759 64.7794 100.773 64.7682C100.787 64.757 100.804 64.7488 100.822 64.744C100.839 64.7391 100.857 64.7378 100.876 64.7401C100.894 64.7424 100.911 64.7482 100.927 64.7572C100.943 64.7662 100.957 64.7783 100.968 64.7927C100.979 64.8071 100.987 64.8235 100.992 64.8411C101.187 65.393 101.509 65.8913 101.932 66.2955C102.356 66.6996 102.868 66.9983 103.428 67.1672C103.446 67.1719 103.463 67.1803 103.477 67.1918C103.491 67.2033 103.503 67.2176 103.512 67.234C103.52 67.2503 103.525 67.2682 103.526 67.2866C103.527 67.3049 103.524 67.3233 103.518 67.3405C103.512 67.3578 103.504 67.3739 103.492 67.3878C103.48 67.4017 103.466 67.4132 103.45 67.4215C103.434 67.4298 103.416 67.4348 103.398 67.4362C103.38 67.4376 103.362 67.4354 103.344 67.4297C103.148 67.3673 102.957 67.2901 102.772 67.1987V67.1987Z" fill="#263238"/>
<path d="M102.027 57.9783C101.983 57.9558 101.945 57.9235 101.916 57.8838C101.876 57.823 101.861 57.7488 101.875 57.6771C101.888 57.6054 101.93 57.542 101.99 57.5005C102.347 57.2412 102.761 57.0708 103.198 57.0032C103.634 56.9357 104.08 56.9729 104.5 57.112C104.534 57.1257 104.566 57.1462 104.592 57.1721C104.619 57.1981 104.64 57.229 104.655 57.2631C104.669 57.2972 104.677 57.3339 104.677 57.371C104.678 57.4082 104.671 57.445 104.657 57.4795C104.643 57.514 104.623 57.5454 104.597 57.572C104.571 57.5985 104.54 57.6198 104.506 57.6344C104.472 57.649 104.435 57.6568 104.398 57.6572C104.361 57.6577 104.324 57.6508 104.29 57.637V57.637C103.956 57.5317 103.603 57.5063 103.258 57.5629C102.914 57.6194 102.587 57.7564 102.305 57.9626C102.264 57.9905 102.217 58.0067 102.168 58.0095C102.119 58.0123 102.07 58.0015 102.027 57.9783V57.9783Z" fill="#263238"/>
<path d="M111.047 61.2968C111.003 61.2826 110.964 61.2572 110.932 61.2232C110.901 61.1891 110.879 61.1476 110.869 61.1025C110.795 60.7633 110.64 60.4469 110.418 60.1801C110.196 59.9132 109.913 59.7037 109.593 59.5693C109.525 59.5433 109.471 59.4921 109.44 59.4264C109.41 59.3608 109.406 59.286 109.43 59.2177C109.454 59.1495 109.504 59.0932 109.568 59.0608C109.633 59.0285 109.708 59.0225 109.777 59.0442C110.183 59.2101 110.544 59.4712 110.828 59.8057C111.112 60.1402 111.312 60.5382 111.41 60.966C111.426 61.0376 111.413 61.1127 111.375 61.1753C111.337 61.238 111.276 61.2834 111.205 61.302C111.153 61.3161 111.098 61.3143 111.047 61.2968Z" fill="#263238"/>
<path d="M152.733 195.447L157.532 192.097L151.541 179.769L146.742 183.119L152.733 195.447Z" fill="#FF8B7B"/>
<path d="M157.406 190.506L151.577 193.09C151.473 193.132 151.388 193.212 151.34 193.315C151.293 193.417 151.285 193.534 151.32 193.641L152.843 198.661C152.885 198.786 152.953 198.902 153.042 199C153.131 199.097 153.239 199.176 153.36 199.23C153.481 199.283 153.612 199.312 153.744 199.312C153.877 199.313 154.008 199.286 154.129 199.233C156.23 198.267 156.802 197.81 159.448 196.644C162.541 195.274 164.027 195.001 167.655 193.394C169.845 192.423 169.23 190.039 168.222 190.244C164.967 190.884 160.808 191.037 158.918 190.338C158.411 190.203 157.871 190.263 157.406 190.506Z" fill="#263238"/>
<path opacity="0.2" d="M151.541 179.774L154.628 186.127L149.829 189.477L146.742 183.124L151.541 179.774Z" fill="black"/>
<path d="M125.671 147.382C86.1904 146.148 76.3138 146.484 77.1487 122.478L97.2117 124.258C97.2117 124.258 132.181 126.416 136.519 138.057C143.04 155.568 154.943 182.552 154.943 182.552L147.067 187.76C147.067 187.76 130.895 167.991 125.671 147.382Z" fill="#34D399"/>
<path d="M156.728 183.943L146.647 190.023L144.153 187.062L155.295 180.11L156.728 183.943Z" fill="#263238"/>
<path d="M156.865 190.968C156.839 190.974 156.813 190.972 156.788 190.964C156.763 190.956 156.74 190.941 156.723 190.921C156.708 190.898 156.699 190.87 156.699 190.842C156.699 190.814 156.708 190.787 156.723 190.764C156.87 190.501 158.178 188.217 158.991 188.138C159.067 188.133 159.143 188.148 159.212 188.18C159.281 188.212 159.34 188.261 159.385 188.322V188.322C159.466 188.418 159.522 188.532 159.548 188.655C159.575 188.778 159.571 188.905 159.538 189.026C159.312 189.855 157.789 190.601 156.912 190.942L156.865 190.968ZM158.939 188.443C158.487 188.553 157.689 189.661 157.159 190.543C158.356 190.018 159.128 189.435 159.259 188.968C159.28 188.887 159.281 188.803 159.263 188.722C159.245 188.64 159.208 188.565 159.154 188.501C159.138 188.475 159.114 188.454 159.086 188.441C159.058 188.428 159.027 188.423 158.997 188.427L158.939 188.443Z" fill="#34D399"/>
<path d="M156.865 190.968H156.823C156.799 190.969 156.775 190.962 156.754 190.949C156.734 190.936 156.718 190.917 156.708 190.895C156.676 190.837 155.941 189.435 156.224 188.516C156.265 188.383 156.332 188.259 156.423 188.152C156.513 188.045 156.624 187.958 156.75 187.897V187.897C157.091 187.718 157.275 187.818 157.395 187.933C157.847 188.427 157.395 190.254 156.96 190.905C156.949 190.922 156.935 190.936 156.919 190.947C156.903 190.958 156.884 190.965 156.865 190.968V190.968ZM156.996 188.086C156.95 188.099 156.906 188.118 156.865 188.144C156.774 188.189 156.693 188.253 156.628 188.332C156.563 188.411 156.515 188.502 156.487 188.6C156.303 189.204 156.644 190.102 156.839 190.527C157.201 189.771 157.448 188.427 157.175 188.123C157.159 188.102 157.117 188.059 156.996 188.086Z" fill="#34D399"/>
<path d="M123.124 95.1534L116.823 95.0537C116.599 95.0478 116.376 95.0882 116.168 95.1722C115.961 95.2562 115.772 95.3821 115.615 95.542L107.776 106.043C107.693 106.148 107.654 106.279 107.664 106.412C107.675 106.544 107.736 106.668 107.834 106.757C108.033 106.962 108.285 106.91 108.669 106.915L114.87 107.01C115.094 107.016 115.318 106.977 115.526 106.894C115.735 106.811 115.924 106.686 116.083 106.526L123.838 96.1458C124.106 95.794 124.143 95.1534 123.124 95.1534Z" fill="#34D399"/>
<path d="M90.2335 83.8224L90.3332 85.0721L90.454 86.39C90.5433 87.2721 90.6378 88.1542 90.7428 89.0153C90.9581 90.7796 91.1944 92.5438 91.5041 94.2661C92.0448 97.6755 92.8882 101.03 94.0245 104.29C94.2975 105.072 94.6283 105.839 94.9486 106.553C95.0956 106.926 95.1639 107.004 95.1429 107.078C95.1219 107.151 95.2637 107.277 95.71 107.304C96.3049 107.321 96.8987 107.243 97.469 107.073C98.2084 106.86 98.9328 106.599 99.6375 106.29C100.388 105.959 101.144 105.576 101.906 105.167C102.667 104.757 103.429 104.316 104.179 103.843C104.93 103.371 105.707 102.882 106.4 102.426L109.456 105.576C108.795 106.406 108.165 107.125 107.461 107.855C106.757 108.585 106.049 109.267 105.277 109.929C104.499 110.615 103.68 111.253 102.825 111.84C101.919 112.477 100.96 113.034 99.9578 113.505C98.7953 114.057 97.5562 114.43 96.2823 114.613C95.5066 114.712 94.7214 114.712 93.9457 114.613C93.064 114.49 92.2087 114.222 91.4149 113.82C90.6174 113.419 89.8931 112.886 89.2726 112.244C88.7217 111.662 88.2454 111.013 87.8549 110.312C87.3298 109.362 86.8468 108.438 86.4215 107.482C84.8049 103.784 83.5954 99.9215 82.8142 95.962C82.4257 94.0245 82.0949 92.087 81.8586 90.1442C81.7326 89.1676 81.6276 88.1962 81.5488 87.2144C81.5068 86.7208 81.4648 86.2325 81.4385 85.7336C81.4123 85.2348 81.386 84.7675 81.3703 84.1899L90.2335 83.8224Z" fill="#FF8B7B"/>
<path d="M80.5564 81.0395C77.364 85.7021 82.6199 99.5325 82.6199 99.5325L95.3161 94.2818C95.3161 94.2818 94.7911 90.7113 92.5333 83.7804C90.0759 76.1826 84.4262 75.3897 80.5564 81.0395Z" fill="#263238"/>
<path d="M105.319 103.255L109.661 99.2333L112.811 105.581C112.811 105.581 108.438 108.732 106.379 106.695L105.319 103.255Z" fill="#FF8B7B"/>
<path d="M115.81 99.4224L116.545 101.832C116.687 102.297 116.66 102.797 116.468 103.244C116.275 103.69 115.93 104.053 115.495 104.269L112.838 105.581L109.687 99.2334L113.232 98.0677C113.49 97.9872 113.761 97.9584 114.031 97.983C114.3 98.0075 114.562 98.0849 114.801 98.2107C115.041 98.3365 115.253 98.5083 115.426 98.7162C115.599 98.9241 115.729 99.1641 115.81 99.4224V99.4224Z" fill="#FF8B7B"/>
</svg>
