<svg width="147" height="96" fill="none" xmlns="http://www.w3.org/2000/svg"><ellipse rx="4.85" ry="4.936" transform="matrix(-1 0 0 1 107.465 5.147)" fill="#36539F"/><ellipse rx="4.85" ry="4.936" transform="matrix(-1 0 0 1 107.465 33.778)" fill="#36539F"/><ellipse rx="4.85" ry="4.936" transform="matrix(-1 0 0 1 107.465 62.41)" fill="#36539F"/><ellipse rx="4.85" ry="4.936" transform="matrix(-1 0 0 1 73.513 62.41)" fill="#36539F"/><ellipse rx="4.85" ry="4.936" transform="matrix(-1 0 0 1 73.513 33.778)" fill="#36539F"/><ellipse rx="4.85" ry="4.936" transform="matrix(-1 0 0 1 73.513 5.147)" fill="#36539F"/><ellipse rx="4.85" ry="4.936" transform="matrix(-1 0 0 1 39.56 33.778)" fill="#36539F"/><ellipse rx="4.85" ry="4.936" transform="matrix(-1 0 0 1 5.606 5.147)" fill="#36539F"/><ellipse rx="4.85" ry="4.936" transform="matrix(-1 0 0 1 39.56 5.147)" fill="#36539F"/><ellipse rx="4.85" ry="4.936" transform="matrix(-1 0 0 1 107.465 91.04)" fill="#36539F"/><ellipse rx="4.85" ry="4.936" transform="matrix(-1 0 0 1 141.419 62.41)" fill="#36539F"/><ellipse rx="4.85" ry="4.936" transform="matrix(-1 0 0 1 141.419 33.778)" fill="#36539F"/><ellipse rx="4.85" ry="4.936" transform="matrix(-1 0 0 1 141.419 5.147)" fill="#36539F"/></svg>