<svg width="35" height="30" fill="none" xmlns="http://www.w3.org/2000/svg"><path d="M35 3.551a13.785 13.785 0 01-4.124 1.193c1.482-.937 2.62-2.422 3.157-4.19a13.936 13.936 0 01-4.56 1.838C28.163.92 26.297 0 24.232 0c-3.966 0-7.181 3.391-7.181 7.573 0 .594.064 1.172.186 1.726-5.968-.316-11.259-3.33-14.8-7.913a7.858 7.858 0 00-.973 3.808c0 2.627 1.268 4.945 3.195 6.304a6.872 6.872 0 01-3.253-.948v.095c0 3.67 2.475 6.731 5.76 7.427a6.83 6.83 0 01-3.243.13c.914 3.008 3.566 5.198 6.708 5.26-2.458 2.03-5.554 3.241-8.918 3.241-.58 0-1.151-.036-1.713-.106C3.178 28.747 6.952 30 11.007 30c13.208 0 20.43-11.54 20.43-21.548 0-.329-.006-.655-.02-.98A15.063 15.063 0 0035 3.552z" fill="#fff"/></svg>