<svg width="33" height="35" fill="none" xmlns="http://www.w3.org/2000/svg"><path d="M13.084 14.683c-1.055 0-1.886.875-1.886 1.944 0 1.065.85 1.943 1.886 1.943 1.053 0 1.883-.878 1.883-1.943a1.895 1.895 0 00-1.883-1.944zm6.748 0c-1.054 0-1.885.875-1.885 1.944 0 1.065.85 1.943 1.885 1.943 1.053 0 1.884-.878 1.884-1.943-.002-1.07-.83-1.944-1.884-1.944z" fill="#fff"/><path d="M28.816 0H4.042a3.985 3.985 0 00-1.453.277c-.46.182-.879.448-1.23.783-.352.334-.631.732-.82 1.168a3.43 3.43 0 00-.286 1.377v23.66c0 1.995 1.7 3.605 3.789 3.605h20.963l-.982-3.24 2.368 2.083 2.236 1.96L32.604 35V3.605a3.43 3.43 0 00-.285-1.377 3.588 3.588 0 00-.82-1.168c-.352-.335-.77-.6-1.23-.783A3.985 3.985 0 0028.816 0zm-7.138 22.855s-.666-.752-1.218-1.42c2.42-.649 3.345-2.082 3.345-2.082-.76.472-1.48.807-2.127 1.035a13.677 13.677 0 01-7.469.734 16.129 16.129 0 01-2.716-.756 10.788 10.788 0 01-1.349-.591c-.056-.039-.11-.053-.165-.088a.226.226 0 01-.076-.056c-.333-.173-.518-.294-.518-.294s.888 1.4 3.236 2.065c-.554.663-1.24 1.453-1.24 1.453-4.084-.123-5.635-2.66-5.635-2.66 0-5.635 2.662-10.202 2.662-10.202 2.662-1.891 5.194-1.838 5.194-1.838l.185.21c-3.328.912-4.863 2.293-4.863 2.293s.409-.21 1.092-.506c1.977-.822 3.547-1.05 4.195-1.104.111-.016.204-.035.315-.035a15.821 15.821 0 019.298 1.645s-1.461-1.311-4.604-2.221l.259-.28s2.534-.054 5.194 1.838c0 0 2.662 4.567 2.662 10.202 0 0-1.57 2.535-5.657 2.658z" fill="#fff"/></svg>
