<svg width="35" height="35" fill="none" xmlns="http://www.w3.org/2000/svg"><path d="M17.502 0C7.832-.004 0 8.037 0 17.962c0 7.848 4.9 14.52 11.723 16.97.919.237.778-.434.778-.892v-3.113c-5.306.639-5.521-2.968-5.877-3.57-.72-1.262-2.42-1.583-1.912-2.185 1.208-.64 2.44.16 3.867 2.325 1.032 1.57 3.046 1.305 4.066 1.044.223-.944.7-1.787 1.357-2.442-5.497-1.012-7.789-4.458-7.789-8.555 0-1.988.638-3.816 1.889-5.29-.798-2.43.074-4.51.191-4.82 2.272-.208 4.634 1.671 4.818 1.82 1.29-.357 2.764-.546 4.414-.546 1.658 0 3.136.197 4.439.558.441-.345 2.631-1.96 4.742-1.763.114.31.966 2.341.216 4.74 1.267 1.477 1.912 3.321 1.912 5.313 0 4.105-2.307 7.555-7.82 8.551a5.132 5.132 0 011.102 1.674c.256.628.388 1.301.387 1.981v4.519c.031.361 0 .719.587.719C30.015 32.602 35 25.883 35 17.966 35 8.037 27.164 0 17.502 0z" fill="#fff"/></svg>
