<svg width="35" height="35" fill="none" xmlns="http://www.w3.org/2000/svg"><path d="M34.322 14.676a.72.72 0 00-.717-.603h-.703a.036.036 0 01-.037-.037.036.036 0 00-.036-.036H21.26a3.5 3.5 0 100 7h.46c2.711 0 4.538 2.761 2.498 4.548C22.473 27.078 20.221 28 17.76 28 12.2 28 7.69 23.299 7.69 17.5S12.2 7 17.76 7c1.362 0 2.659.284 3.841.797 1.737.754 3.891.766 5.202-.6 1.32-1.377 1.296-3.599-.31-4.627A16.13 16.13 0 0017.76 0C8.491 0 .977 7.836.977 17.5S8.49 35 17.76 35c9.269 0 16.784-7.836 16.784-17.5 0-.962-.078-1.905-.222-2.824z" fill="#FFC107"/><path d="M4.289 7.075c-.897 1.259-.487 2.96.74 3.899 1.699 1.299 4.197.552 5.692-.977C12.535 8.143 15.02 7 17.761 7c1.361 0 2.658.284 3.84.797 1.738.754 3.891.766 5.202-.6 1.32-1.377 1.296-3.599-.31-4.627A16.131 16.131 0 0017.76 0C12.24 0 7.346 2.784 4.29 7.075z" fill="#FF3D00"/><path d="M17.76 35c2.947 0 5.711-.8 8.115-2.195 1.824-1.06 1.774-3.551.193-4.947-1.302-1.148-3.224-1.123-4.844-.5A9.628 9.628 0 0117.76 28c-2.807 0-5.342-1.2-7.166-3.134-1.5-1.592-4.1-2.375-5.804-1.005-1.153.925-1.534 2.546-.701 3.767C7.129 32.087 12.114 35 17.76 35z" fill="#4CAF50"/><path d="M34.322 14.676a.72.72 0 00-.717-.603h-.703a.036.036 0 01-.037-.037.036.036 0 00-.036-.036H21.26a3.5 3.5 0 100 7h.456c2.712 0 4.538 2.764 2.495 4.547-.129.113-.26.222-.395.328a.004.004 0 01.005 0l2.167 1.912c1.625 1.434 4.423 1.471 5.614-.339 1.44-2.188 2.942-5.534 2.942-9.948 0-.962-.078-1.905-.222-2.824z" fill="#1976D2"/></svg>
